<?xml version="1.0" encoding="UTF-8" standalone="no"?>
<svg
   version="1.1"
   width="1024"
   height="1024"
   id="svg27"
   sodipodi:docname="binoculars.svg"
   inkscape:version="1.4.2 (f4327f4, 2025-05-13)"
   xmlns:inkscape="http://www.inkscape.org/namespaces/inkscape"
   xmlns:sodipodi="http://sodipodi.sourceforge.net/DTD/sodipodi-0.dtd"
   xmlns="http://www.w3.org/2000/svg"
   xmlns:svg="http://www.w3.org/2000/svg">
  <defs
     id="defs27" />
  <sodipodi:namedview
     id="namedview27"
     pagecolor="#ffffff"
     bordercolor="#000000"
     borderopacity="0.25"
     inkscape:showpageshadow="2"
     inkscape:pageopacity="0.0"
     inkscape:pagecheckerboard="0"
     inkscape:deskcolor="#d1d1d1"
     inkscape:zoom="1.1611328"
     inkscape:cx="512"
     inkscape:cy="512"
     inkscape:window-width="2560"
     inkscape:window-height="1369"
     inkscape:window-x="-8"
     inkscape:window-y="-8"
     inkscape:window-maximized="1"
     inkscape:current-layer="svg27" />
  <path
     d="M0 0 C1.18207031 0.23332031 2.36414063 0.46664062 3.58203125 0.70703125 C18.30310095 4.0828577 31.54091523 11.01185647 42 22 C42.58007812 22.57234375 43.16015625 23.1446875 43.7578125 23.734375 C52.63835249 33.10579911 55.40757762 45.7784121 55.44335938 58.30053711 C55.17428461 67.79735727 52.44454648 76.87642753 50 86 C49.27917626 88.73284113 48.56420621 91.46690207 47.86010742 94.20410156 C47.42543447 95.88978062 46.98094886 97.57297335 46.5246582 99.25292969 C44.76740622 105.99908017 44.28419875 112.13679498 46 119 C46.33 120.32 46.66 121.64 47 123 C50.3 122.01 53.6 121.02 57 120 C56.9071875 118.576875 56.9071875 118.576875 56.8125 117.125 C56.87113421 107.43081026 61.28070703 99.45010212 67.48828125 92.28125 C76.91689885 83.1099892 90.51735398 81.68322938 102.98828125 81.84765625 C115.28568976 82.19491096 127.18737012 86.18737012 136 95 C140.26641751 100.32680866 143.03035362 105.30941723 144.4375 112 C145.22692275 115.74553916 145.22692275 115.74553916 147.8125 118.35546875 C151.39482744 119.75810799 154.11395143 120 158 120 C160.36157428 112.91527716 158.73040865 105.35422966 157.3125 98.25 C157.05001465 96.87690674 157.05001465 96.87690674 156.78222656 95.47607422 C155.88723083 90.92846501 154.88954308 86.45081793 153.62109375 81.9921875 C149.35155391 66.97134781 145.99614755 48.87633259 153.52734375 34.359375 C154.25630859 33.19148438 154.25630859 33.19148438 155 32 C155.43441406 31.28328125 155.86882812 30.5665625 156.31640625 29.828125 C167.570905 13.28304991 187.81385495 3.76412429 206.796875 -0.421875 C228.41078624 -4.32292239 253.78834037 -4.16774346 272.90234375 7.8203125 C287.64763699 18.13594975 294.76868207 29.05894906 299.25 46.4375 C299.58773437 47.68337891 299.92546875 48.92925781 300.2734375 50.21289062 C301.78176572 55.86912146 303.0711394 61.33590684 303.77734375 67.1484375 C304.36557725 70.68375422 304.36557725 70.68375422 306.44091797 73.47192383 C308.35594288 74.61308306 310.2235713 75.41128738 312.3125 76.1875 C313.77434103 76.82307592 315.2339576 77.46379047 316.69140625 78.109375 C317.4198877 78.42068359 318.14836914 78.73199219 318.89892578 79.05273438 C332.76764629 85.30542268 345.01065779 95.66501442 356 106 C356.60199219 106.53753906 357.20398438 107.07507813 357.82421875 107.62890625 C371.0746956 119.95277633 378.79530122 137.20734569 387 153 C387.31704895 153.60936401 387.6340979 154.21872803 387.96075439 154.84655762 C391.50849682 161.66596051 395.03894925 168.49418322 398.55859375 175.328125 C404.34970237 186.56793332 410.27119311 197.73800783 416.19140625 208.91015625 C417.75270192 211.85671905 419.31387529 214.80334662 420.875 217.75 C421.26716705 218.49012329 421.65933411 219.23024658 422.06338501 219.99279785 C427.87078405 230.95462842 433.6382709 241.93627794 439.36328125 252.94140625 C441.40035036 256.85567322 443.45422256 260.76065881 445.51708984 264.66137695 C450.15675197 273.43647426 454.7163285 282.25154945 459.25732422 291.07797241 C460.37532898 293.25063933 461.49416952 295.42287379 462.61328125 297.5949707 C463.3502708 299.02554803 464.08725006 300.45613067 464.82421875 301.88671875 C465.36530777 302.93703026 465.36530777 302.93703026 465.91732788 304.00856018 C468.04162436 308.13371666 470.15769964 312.2629749 472.26953125 316.39453125 C477.3773382 326.34413977 482.6990076 336.13799319 488.3125 345.8125 C488.87541748 346.78517822 489.43833496 347.75785645 490.01831055 348.76000977 C493.24001188 354.24530152 496.68616299 359.4746115 500.37280273 364.65698242 C518.94391721 391.39771545 529.44959551 425.18535265 529.26074219 457.62817383 C529.25006182 459.79992918 529.26068426 461.97084828 529.2734375 464.14257812 C529.28758385 477.14729741 528.15984806 490.00193659 524.875 502.625 C524.66254639 503.4492749 524.45009277 504.2735498 524.23120117 505.12280273 C516.44254914 534.21482501 502.84722868 559.46737646 483 582 C482.40832031 582.71414063 481.81664062 583.42828125 481.20703125 584.1640625 C452.62823599 618.45861681 406.63081314 638.97123977 362.80688477 643.48217773 C324.46744015 646.89316035 284.48428151 637.92142416 252 617 C251.37222656 616.59700684 250.74445312 616.19401367 250.09765625 615.77880859 C240.06088712 609.27594088 230.79756092 602.09734689 222 594 C221.4524707 593.49774902 220.90494141 592.99549805 220.34082031 592.47802734 C196.2910169 570.13383313 179.50041436 540.59343412 171 509 C170.80180664 508.26797363 170.60361328 507.53594727 170.39941406 506.78173828 C166.78939109 493.16653359 165.18686108 479.6868841 164.40649414 465.64672852 C163.2230067 444.58804063 160.5210703 423.79650893 157 403 C156.56171875 403.40089844 156.1234375 403.80179688 155.671875 404.21484375 C137.99097197 420.06297024 119.94305336 429.25259644 95.86328125 428.375 C76.09129883 427.13804313 59.60427117 416.81907545 46 403 C45.83564453 404.51400391 45.83564453 404.51400391 45.66796875 406.05859375 C45.50806235 407.51825656 45.34787985 408.97788914 45.1875 410.4375 C45.05601562 411.63838257 45.05601562 411.63838257 44.921875 412.86352539 C44.40622615 417.51805091 43.85950059 422.16678069 43.26953125 426.8125 C41.87731147 437.84343829 40.71353587 448.84470609 39.9375 459.9375 C39.62676404 464.29179504 39.3150117 468.64601205 39 473 C38.94021973 473.8357959 38.88043945 474.6715918 38.81884766 475.53271484 C36.85471297 501.3525582 29.23199766 526.2634242 17 549 C16.51660156 549.91458984 16.51660156 549.91458984 16.0234375 550.84765625 C8.5712898 564.87344644 -1.07533875 576.5775354 -12 588 C-12.88558594 588.9384375 -13.77117187 589.876875 -14.68359375 590.84375 C-42.42437025 619.51056113 -82.50676112 638.27798231 -122 643 C-122.80953125 643.10957031 -123.6190625 643.21914063 -124.453125 643.33203125 C-171.69142756 648.76588507 -218.61603295 633.20372914 -255.98828125 604.72265625 C-258.71588267 602.53978565 -261.36875885 600.29807681 -264 598 C-264.52190918 597.54512207 -265.04381836 597.09024414 -265.58154297 596.62158203 C-273.17457018 589.95513133 -279.82495126 583.0297846 -286 575 C-286.79921875 574.01644531 -287.5984375 573.03289063 -288.421875 572.01953125 C-317.20620558 536.33953973 -329.85139685 489.52030088 -325.22851562 444.16748047 C-321.46688027 411.79351652 -308.68871439 382.90651807 -290.39306641 356.19238281 C-284.02957251 346.78757651 -278.73142757 336.87438937 -273.47558594 326.8203125 C-272.11353038 324.21699255 -270.73631448 321.6225497 -269.3515625 319.03125 C-264.44665707 309.8273842 -259.74359327 300.53146381 -255.10498047 291.19091797 C-251.75804879 284.4675818 -248.29260572 277.81592125 -244.76953125 271.18359375 C-241.58592993 265.16789283 -238.52698446 259.09581908 -235.5 253 C-231.33483246 244.61805464 -227.04638419 236.31305545 -222.6640625 228.04296875 C-219.57619826 222.2125473 -216.53911312 216.35593834 -213.5 210.5 C-209.26898582 202.35199463 -205.01995141 194.21415086 -200.73388672 186.0949707 C-198.52088444 181.89987652 -196.32092967 177.69844807 -194.13671875 173.48828125 C-166.47828462 120.18219606 -166.47828462 120.18219606 -151 105 C-150.0925 104.10539062 -149.185 103.21078125 -148.25 102.2890625 C-139.34332983 93.8743305 -129.43572487 87.25931103 -118.8125 81.25 C-118.13453369 80.86110596 -117.45656738 80.47221191 -116.75805664 80.0715332 C-113.81454012 78.41744115 -111.12574355 77.04091026 -107.90234375 75.9921875 C-104.88027861 75.00411907 -103.21834864 74.30017298 -101 72 C-99.19441914 66.6603249 -98.36759007 61.28424925 -97.48486328 55.73046875 C-95.30190709 43.43732574 -92.03487643 30.78469396 -84 21 C-83.50242187 20.37609375 -83.00484375 19.7521875 -82.4921875 19.109375 C-62.35806656 -3.35180514 -27.74026286 -5.78898127 0 0 Z "
     fill="#05264B"
     transform="translate(410,191)"
     id="path2" />
  <path
     d="M0 0 C0.74024414 0.27827637 1.48048828 0.55655273 2.24316406 0.84326172 C24.71218793 9.4447576 44.65513956 22.30863509 62 39 C62.75144287 39.712771 62.75144287 39.712771 63.51806641 40.43994141 C75.34534661 51.69911449 84.92231231 63.73757769 93 78 C93.33241699 78.58555664 93.66483398 79.17111328 94.00732422 79.77441406 C107.04992376 103.13746216 111.49942506 128.25615001 111.03710938 154.74023438 C111.0029328 156.82140821 110.9925375 158.90293657 110.984375 160.984375 C110.46773764 179.65712536 106.05220892 199.13886855 98 216 C97.70367676 216.63373535 97.40735352 217.2674707 97.10205078 217.92041016 C89.84948252 233.36172578 81.60968179 247.43772894 70 260 C69.54286621 260.50096191 69.08573242 261.00192383 68.61474609 261.51806641 C45.96643143 286.08369871 15.33682989 302.42844959 -17 310 C-17.74975098 310.17789062 -18.49950195 310.35578125 -19.27197266 310.5390625 C-59.28530519 319.55212154 -102.41592668 310.20568466 -136.98828125 289.01171875 C-146.27188741 283.09278294 -154.9094697 276.46091705 -163 269 C-163.50724609 268.53658203 -164.01449219 268.07316406 -164.53710938 267.59570312 C-187.39638147 246.47477871 -202.18046047 218.10442307 -209 188 C-209.26901123 186.82945068 -209.26901123 186.82945068 -209.54345703 185.63525391 C-213.87310693 165.90460505 -213.76404181 143.80961432 -210 124 C-209.87641113 123.34241699 -209.75282227 122.68483398 -209.62548828 122.00732422 C-203.63613623 91.17486584 -188.55703632 62.97983133 -166.57275391 40.61230469 C-164.93425282 38.93259944 -163.33219878 37.22256688 -161.73046875 35.5078125 C-120.88387089 -7.5674248 -55.31931415 -20.96325006 0 0 Z "
     fill="#135085"
     transform="translate(318,500)"
     id="path3" />
  <path
     d="M0 0 C3.36319648 2.95772519 6.62385729 6.01174771 9.83886719 9.12939453 C11.20158492 10.44882275 12.58151354 11.75041306 13.96289062 13.05029297 C36.52946307 34.76261031 52.4827917 64.11684868 59.31445312 94.55810547 C59.48944336 95.31945801 59.66443359 96.08081055 59.84472656 96.86523438 C64.38771645 117.53358938 63.89939546 139.94842867 59.31445312 160.55810547 C59.14816406 161.32880371 58.981875 162.09950195 58.81054688 162.89355469 C52.31477847 192.20270231 38.06613478 218.04327852 17.31445312 239.55810547 C16.05568359 240.92902344 16.05568359 240.92902344 14.77148438 242.32763672 C3.02254908 254.75200248 -11.59145968 263.73068824 -26.68554688 271.55810547 C-27.29043945 271.87618164 -27.89533203 272.19425781 -28.51855469 272.52197266 C-63.43259971 290.65151204 -107.41723148 294.23715695 -144.80737305 282.53442383 C-156.28813206 278.78716068 -167.1979852 274.54977681 -177.68554688 268.55810547 C-178.32379395 268.20248535 -178.96204102 267.84686523 -179.61962891 267.48046875 C-188.3432546 262.59808372 -196.16583727 257.18975121 -203.68554688 250.55810547 C-204.94625 249.46175781 -204.94625 249.46175781 -206.23242188 248.34326172 C-215.83514329 239.85886966 -224.59067499 231.27866556 -231.68554688 220.55810547 C-232.10449219 219.92936523 -232.5234375 219.300625 -232.95507812 218.65283203 C-244.78466617 200.71242654 -252.79787807 181.47325491 -257.68554688 160.55810547 C-257.95238281 159.4349292 -257.95238281 159.4349292 -258.22460938 158.2890625 C-263.59769357 134.31807079 -263.5958168 104.84919593 -255.68554688 81.55810547 C-255.25943115 80.29474365 -255.25943115 80.29474365 -254.82470703 79.00585938 C-247.01605284 56.60412136 -234.94430729 37.72590201 -218.68554688 20.55810547 C-218.23405273 20.06874512 -217.78255859 19.57938477 -217.31738281 19.07519531 C-162.62103527 -39.97993985 -63.0014305 -53.89432916 0 0 Z "
     fill="#135085"
     transform="translate(855.685546875,524.44189453125)"
     id="path4" />
  <path
     d="M0 0 C20.74265477 18.82425896 35.48093148 45.69345498 37 74 C38.07423362 106.68274412 28.49195319 135.62932466 6.13671875 159.73046875 C5.43160156 160.47941406 4.72648438 161.22835937 4 162 C3.44957031 162.61488281 2.89914062 163.22976563 2.33203125 163.86328125 C-15.88238634 183.42691495 -44.87943045 193.16428749 -70.96484375 194.3203125 C-104.59584898 195.21818334 -133.64193076 184.83840096 -158.73828125 162.5703125 C-178.18438186 144.12222327 -191.2202525 116.55520778 -192.1796875 89.7265625 C-192.86694125 58.75034263 -182.71525845 30.26568547 -161.25170898 7.78540039 C-154.08312257 0.49981043 -146.79902628 -5.73535478 -138 -11 C-137.42991211 -11.34466309 -136.85982422 -11.68932617 -136.27246094 -12.04443359 C-93.88735261 -37.30577215 -37.02174931 -33.15019383 0 0 Z "
     fill="#61C0E3"
     transform="translate(836,572)"
     id="path5" />
  <path
     d="M0 0 C1.69382812 0.36738281 1.69382812 0.36738281 3.421875 0.7421875 C31.7405562 7.49326551 57.55485551 25.03527998 73.1875 49.75 C88.66325788 75.10523764 96.00519541 104.99813677 89.375 134.5625 C85.02287756 152.27072816 76.87610964 168.18096854 65 182 C64.22462891 182.99193359 64.22462891 182.99193359 63.43359375 184.00390625 C47.32069937 203.99358724 19.83399071 216.43009272 -5.203125 219.59375 C-39.3616798 222.9906528 -71.17318698 215.85744679 -98 194 C-99.16595703 193.08154297 -99.16595703 193.08154297 -100.35546875 192.14453125 C-122.11659672 174.08086927 -134.16614095 145.65737436 -137 118 C-138.43730383 86.17876177 -128.72122567 58.10525564 -107.54589844 34.37011719 C-81.30964537 5.67695747 -38.25842938 -9.09421682 0 0 Z "
     fill="#60C0E3"
     transform="translate(288,546)"
     id="path6" />
  <path
     d="M0 0 C3.00766225 2.64276898 5.85628226 5.41515231 8.69140625 8.2421875 C9.56410156 9.09167969 10.43679688 9.94117188 11.3359375 10.81640625 C18.4484841 18.12561313 23.04694241 26.28390589 27.69140625 35.2421875 C28.4491333 36.68972412 28.4491333 36.68972412 29.22216797 38.16650391 C32.48405751 44.39830293 35.71889931 50.64368648 38.93814087 56.89761353 C42.17555684 63.18624186 45.43345088 69.46418392 48.69140625 75.7421875 C49.85550158 77.98826423 51.01956402 80.23435802 52.18359375 82.48046875 C54.53818722 87.02203387 56.89808246 91.56079128 59.26171875 96.09765625 C65.42245523 107.93302178 71.4998204 119.8017097 77.4362793 131.7512207 C80.42322767 137.74955567 83.48358445 143.70051673 86.62890625 149.6171875 C90.48018267 156.88385204 94.26237106 164.18479204 97.97537231 171.52301025 C98.86684739 173.28090866 99.76625824 175.03477533 100.66577148 176.78857422 C101.47316772 178.39176514 101.47316772 178.39176514 102.296875 180.02734375 C102.78309326 180.98519775 103.26931152 181.94305176 103.77026367 182.92993164 C104.07424072 183.69297607 104.37821777 184.45602051 104.69140625 185.2421875 C104.36140625 185.9021875 104.03140625 186.5621875 103.69140625 187.2421875 C103.17570068 187.0062085 102.65999512 186.77022949 102.12866211 186.52709961 C83.71270305 178.1779111 64.74430842 171.34405254 44.69140625 168.2421875 C44.04075195 168.14067383 43.39009766 168.03916016 42.71972656 167.93457031 C-2.95414011 161.04327296 -51.6349342 172.47025274 -89.30859375 199.2421875 C-90.30503906 199.94730469 -91.30148437 200.65242187 -92.328125 201.37890625 C-98.74256297 206.06153004 -104.79228395 211.1190933 -110.765625 216.3449707 C-115.11917578 220.14747852 -115.11917578 220.14747852 -117.30859375 221.2421875 C-119.32479051 210.44031726 -121.05763886 199.59833325 -122.7265625 188.73828125 C-122.83560158 188.02887138 -122.94464066 187.31946152 -123.05698395 186.58855438 C-123.63166778 182.84704619 -124.20512322 179.10535068 -124.77813721 175.36358643 C-128.34519375 152.07958956 -131.96923171 128.80945685 -135.90518188 105.58447266 C-137.91967958 93.6961302 -139.86691739 81.79975155 -141.73046875 69.88671875 C-141.88422533 68.9050687 -141.88422533 68.9050687 -142.0410881 67.90358734 C-143.14894083 60.8297033 -144.24940128 53.75473538 -145.34033203 46.67822266 C-145.70204775 44.35447651 -146.06385934 42.03074529 -146.42578125 39.70703125 C-146.58689392 38.64893753 -146.74800659 37.59084381 -146.91400146 36.50068665 C-147.99973257 26.75382643 -147.99973257 26.75382643 -152.93359375 18.8046875 C-153.71734375 18.2890625 -154.50109375 17.7734375 -155.30859375 17.2421875 C-153.41828177 5.13984527 -143.91499632 -6.40598075 -134.6796875 -14.0390625 C-93.45718927 -43.92028033 -36.67350503 -31.14978664 0 0 Z "
     fill="#F7AB49"
     transform="translate(743.30859375,304.7578125)"
     id="path7" />
  <path
     d="M0 0 C7.01080377 6.42178132 13.9501829 15.58432884 16.8125 24.75 C16.68359375 27.4140625 16.68359375 27.4140625 15.8125 29.75 C15.16764648 30.04039154 14.52279297 30.33078308 13.85839844 30.62997437 C11.6782238 31.57382524 11.6782238 31.57382524 10.84692383 33.64419556 C8.87879448 40.90951013 7.61981556 48.20865469 6.5 55.6484375 C6.28853346 57.01705132 6.07637605 58.38555855 5.86358643 59.75396729 C5.40978135 62.68006249 4.96011812 65.60675104 4.51379395 68.53399658 C3.43547865 75.60374761 2.33504749 82.67007717 1.23737335 89.73684311 C0.85702238 92.18703034 0.47750803 94.63734615 0.0980835 97.087677 C-2.39132785 113.14730084 -4.98056801 129.19028697 -7.58896637 145.2309494 C-8.16668537 148.78486405 -8.74325883 152.33896445 -9.31982422 155.89306641 C-9.48818944 156.93090491 -9.48818944 156.93090491 -9.65995598 157.98970985 C-9.88405828 159.37117862 -10.10815084 160.75264897 -10.33223343 162.13412094 C-10.55238618 163.49125672 -10.77257775 164.84838619 -10.9928093 166.20550919 C-12.96457287 178.35621528 -14.92253337 190.50907439 -16.86047363 202.66522217 C-17.15677614 204.52341415 -17.45355275 206.38153061 -17.75085449 208.23956299 C-18.15040779 210.73761291 -18.54817158 213.23594057 -18.9453125 215.734375 C-19.05829681 216.43934113 -19.17128113 217.14430725 -19.28768921 217.87063599 C-20.01839903 222.48814191 -20.62734681 227.10947083 -21.1875 231.75 C-24.51391156 230.29562723 -26.71040451 228.45099367 -29.3125 225.9375 C-60.13789908 197.85713646 -102.30760939 179.33919228 -144.1875 177.75 C-144.95707031 177.71745117 -145.72664063 177.68490234 -146.51953125 177.65136719 C-176.581253 176.53588351 -205.69804851 182.86426017 -233.29321289 194.58642578 C-234.29602295 195.01036621 -235.29883301 195.43430664 -236.33203125 195.87109375 C-237.66778198 196.45008423 -237.66778198 196.45008423 -239.03051758 197.04077148 C-241.1875 197.75 -241.1875 197.75 -243.1875 196.75 C-226.35337044 162.8911769 -226.35337044 162.8911769 -219.65478516 150.32885742 C-216.07453517 143.5958841 -212.68480625 136.77260068 -209.29370117 129.94287109 C-205.92267895 123.17227379 -202.43359992 116.47274181 -198.88671875 109.79296875 C-195.90146434 104.1531052 -193.02394842 98.46599052 -190.1875 92.75 C-185.81414204 83.95079701 -181.29899779 75.23776355 -176.67871094 66.56591797 C-175.27395304 63.91325302 -173.88367799 61.2533595 -172.49745178 58.5909729 C-171.20303644 56.10980236 -169.89935167 53.63356421 -168.59432983 51.15795898 C-167.65725684 49.3739122 -166.73041781 47.58450158 -165.80395508 45.79492188 C-149.82915444 15.60999136 -122.61541884 -3.88732673 -90.59375 -14.43359375 C-59.43690864 -23.84268412 -25.82327485 -20.96889954 0 0 Z "
     fill="#F6AB49"
     transform="translate(419.1875,293.25)"
     id="path8" />
  <path
     d="M0 0 C0.56025879 0.41507813 1.12051758 0.83015625 1.69775391 1.2578125 C31.45393632 23.45931648 48.84750536 52.95580692 55.58984375 89.16796875 C59.25437366 123.40514818 52.59120975 159.08516362 30.79931641 186.46191406 C29.54812266 187.98724306 28.27416712 189.49380862 27 191 C26.1853125 191.96679688 25.370625 192.93359375 24.53125 193.9296875 C18.8903323 200.37390045 12.79045866 205.79879762 6 211 C4.77603516 211.98226562 4.77603516 211.98226562 3.52734375 212.984375 C-27.51601911 236.97460905 -66.04972287 242.80901672 -104.18237305 238.27734375 C-136.19390556 233.4532609 -166.59478129 213.42375459 -186 188 C-186.58265625 187.25621094 -187.1653125 186.51242187 -187.765625 185.74609375 C-209.42062812 156.65350779 -217.00169602 118.99979352 -212.38671875 83.359375 C-208.62166858 60.37005442 -197.60597933 39.843758 -183 22 C-182.36964844 21.2265625 -181.73929688 20.453125 -181.08984375 19.65625 C-159.60585223 -5.79175818 -125.58217428 -21.82136624 -92.734375 -24.68359375 C-59.69668414 -27.09746334 -26.89998793 -20.03885741 0 0 Z M-160 29 C-160.60070312 29.53753906 -161.20140625 30.07507813 -161.8203125 30.62890625 C-181.79975556 49.16797086 -191.75886112 77.34357396 -193.21484375 103.921875 C-193.90073724 131.68684354 -184.59470781 159.25841717 -166 180 C-165.46246094 180.67933594 -164.92492187 181.35867188 -164.37109375 182.05859375 C-148.38146527 201.9754994 -122.58051107 212.96135811 -98 217 C-97.0618042 217.17273438 -96.1236084 217.34546875 -95.15698242 217.5234375 C-81.81272503 219.5378208 -66.11026463 219.14185765 -53 216 C-52.00492432 215.77401123 -52.00492432 215.77401123 -50.98974609 215.54345703 C-39.46914548 212.87776571 -29.28329061 208.81267114 -19 203 C-18.02675781 202.45601562 -17.05351562 201.91203125 -16.05078125 201.3515625 C9.07257084 186.31422767 25.79489208 162.18824547 33 134 C34.76388903 126.35865853 35.32396731 119.01665503 35.25 111.1875 C35.24250732 110.13433594 35.23501465 109.08117187 35.22729492 107.99609375 C34.80285778 77.19001941 22.36053797 49.09941698 0.51123047 27.43359375 C-13.46223529 14.17798939 -29.69751619 5.62535696 -48 0 C-49.05574219 -0.32871094 -50.11148438 -0.65742187 -51.19921875 -0.99609375 C-89.79596677 -12.24674973 -131.74129148 1.99835147 -160 29 Z "
     fill="#04264B"
     transform="translate(344,548)"
     id="path9" />
  <path
     d="M0 0 C0.94617188 0.515625 1.89234375 1.03125 2.8671875 1.5625 C9.07228865 5.11931811 14.56907987 9.35991222 20 14 C21.44052734 15.22009766 21.44052734 15.22009766 22.91015625 16.46484375 C42.9724632 33.8847187 56.1240206 57.51879767 63 83 C63.32226562 84.16144531 63.64453125 85.32289063 63.9765625 86.51953125 C71.46040067 118.79795474 64.81452552 155.23576083 47.63623047 183.36352539 C28.84519469 213.26667794 0.38168653 235.08622942 -34 244 C-34.65838867 244.17499023 -35.31677734 244.34998047 -35.99511719 244.53027344 C-46.76581756 247.23231203 -57.71072508 247.27960888 -68.75 247.3125 C-69.44924591 247.31626648 -70.14849182 247.32003296 -70.868927 247.32391357 C-107.71501727 247.42443976 -139.458464 233.35230221 -166 208 C-191.25882879 182.18393263 -203.26932361 147.72850756 -203.31689453 112.08203125 C-202.96053877 81.70820215 -192.73339785 54.08380607 -173 31 C-172.30801514 30.18257324 -172.30801514 30.18257324 -171.60205078 29.34863281 C-151.32698284 5.66120159 -124.08593773 -8.21770197 -94 -15 C-92.94039062 -15.2475 -91.88078125 -15.495 -90.7890625 -15.75 C-59.65668659 -21.75946666 -27.40352772 -15.02420709 0 0 Z M-79.11328125 4.05859375 C-109.46960638 5.6165389 -137.26911646 23.45705758 -157.34863281 45.11914062 C-176.28901399 66.69168595 -184.37218696 95.49274108 -183.14794922 123.79638672 C-181.21171079 152.63547595 -166.51466092 180.01647566 -145 199 C-130.07909409 211.74008643 -112.31293544 220.47112203 -93 224 C-92.10700195 224.17297607 -91.21400391 224.34595215 -90.29394531 224.52416992 C-83.10933941 225.84103594 -76.17368991 226.35278927 -68.875 226.3125 C-67.24485962 226.30404053 -67.24485962 226.30404053 -65.58178711 226.29541016 C-38.0748424 225.88585736 -11.39337537 216.93216779 9 198 C9.91007813 197.16984375 10.82015625 196.3396875 11.7578125 195.484375 C32.68344874 175.54964632 45.09411369 147.81245551 46.1796875 118.890625 C46.88223541 89.00349038 36.75560602 61.20796662 16.20336914 39.296875 C7.89132854 30.64379102 -0.5212362 23.89508524 -11 18 C-11.96808594 17.4534375 -12.93617188 16.906875 -13.93359375 16.34375 C-34.71276308 5.29160023 -56.08402585 3.62516987 -79.11328125 4.05859375 Z "
     fill="#04264B"
     transform="translate(827,540)"
     id="path10" />
  <path
     d="M0 0 C2.0390625 0.859375 2.0390625 0.859375 3.9375 1.875 C4.60523438 2.23078125 5.27296875 2.5865625 5.9609375 2.953125 C9.00381854 5.01483215 10.6631761 6.83105623 11.61035156 10.43554688 C11.7440918 11.43650391 11.87783203 12.43746094 12.015625 13.46875 C12.171521 14.6345459 12.32741699 15.8003418 12.48803711 17.00146484 C13.33800191 24.32658244 14.07699798 31.65657145 14.75 39 C14.83198639 39.88065125 14.91397278 40.76130249 14.9984436 41.66864014 C16.99052629 63.16873309 18.55251283 84.70398354 20.11507416 106.2387352 C20.27214591 108.40336602 20.42975398 110.56795728 20.58743286 112.73254395 C20.78179731 115.40110152 20.9736305 118.0697999 21.16403198 120.73864746 C21.53252005 125.82016815 21.91053239 130.88893067 22.49707031 135.95043945 C22.82948007 138.91246103 23.05716585 141.72010973 23.03515625 144.69140625 C23.03032227 145.86606445 23.03032227 145.86606445 23.02539062 147.06445312 C23.01282227 148.23911133 23.01282227 148.23911133 23 149.4375 C22.99548828 150.25541016 22.99097656 151.07332031 22.98632812 151.91601562 C22.97471198 153.90237647 22.95678448 155.8886988 22.9375 157.875 C21.27067469 157.7309912 19.60404815 157.58468156 17.9375 157.4375 C16.5453125 157.31568359 16.5453125 157.31568359 15.125 157.19140625 C12.86889952 156.9674551 10.61845775 156.68263967 8.375 156.35546875 C-6.21931422 154.5121404 -21.79464989 154.88054949 -36.12109375 158.21875 C-39.0625 158.875 -39.0625 158.875 -43.0625 158.875 C-43.19486631 151.31243806 -42.67146791 143.88144748 -42.0390625 136.34765625 C-41.87654117 134.35622685 -41.71402023 132.36479743 -41.55151939 130.37336636 C-41.32366543 127.59261721 -41.09242879 124.81215306 -40.86126709 122.03167725 C-40.57717374 118.60788832 -40.29636987 115.1838305 -40.015625 111.75976562 C-39.93316166 110.75407311 -39.93316166 110.75407311 -39.8490324 109.72806358 C-39.73836573 108.37822387 -39.62772006 107.02838244 -39.51709557 105.67853928 C-39.35167548 103.66153382 -39.18583812 101.64456296 -39.01997375 99.62759399 C-37.71498358 83.73466957 -36.48214665 67.83633686 -35.34707642 51.93035889 C-34.60973243 41.7858756 -33.68878187 31.67142842 -32.5625 21.5625 C-32.44398682 20.46486328 -32.32547363 19.36722656 -32.20336914 18.23632812 C-32.08469482 17.21345703 -31.96602051 16.19058594 -31.84375 15.13671875 C-31.74126953 14.23912842 -31.63878906 13.34153809 -31.53320312 12.41674805 C-30.36380864 6.10213913 -28.03143618 3.60170214 -23.0625 -0.125 C-17.21981488 -3.04634256 -6.16220841 -1.81870734 0 0 Z "
     fill="#135085"
     transform="translate(521.0625,295.125)"
     id="path11" />
  <path
     d="M0 0 C17.45286769 14.90575729 28.44470018 35.80430435 31.96240234 58.45336914 C32.34405588 63.42006944 31.37814234 66.2538055 28.97021484 70.58618164 C28.34759766 71.7218457 27.72498047 72.85750977 27.08349609 74.02758789 C26.41849029 75.21138326 25.75312219 76.39497517 25.08740234 77.57836914 C24.42867798 78.76912764 23.77111431 79.96052902 23.11474609 81.15258789 C21.90729909 83.34092999 20.69448225 85.52632387 19.47460938 87.70776367 C18.24808559 89.93467464 17.07635516 92.16877554 15.96240234 94.45336914 C14.19124805 91.27418028 13.35404878 88.27081373 12.59521484 84.71899414 C12.35182373 83.59541504 12.10843262 82.47183594 11.85766602 81.31420898 C11.603479 80.12263184 11.34929199 78.93105469 11.08740234 77.70336914 C10.54526724 75.24224786 10.0023025 72.78130918 9.45849609 70.32055664 C8.61054031 66.45572417 7.78203112 62.58933644 6.99755859 58.71118164 C2.93272898 40.09163954 -6.86802385 24.05458355 -22.91259766 13.51586914 C-38.92882411 3.53630764 -58.52608306 0.32482415 -77.11572266 4.13696289 C-93.09926851 8.78917853 -108.80852263 19.44626685 -117.17041016 34.05493164 C-117.88616784 35.39075226 -118.59193783 36.73197276 -119.28759766 38.07836914 C-119.60486816 38.68036133 -119.92213867 39.28235352 -120.24902344 39.90258789 C-126.31905852 52.32973276 -128.01454045 66.42276691 -129.97021484 79.95727539 C-130.26931086 82.00660203 -130.57886516 84.05415107 -130.88916016 86.10180664 C-131.0627002 87.2998291 -131.23624023 88.49785156 -131.41503906 89.73217773 C-131.72320557 91.07916748 -131.72320557 91.07916748 -132.03759766 92.45336914 C-133.02759766 92.94836914 -133.02759766 92.94836914 -134.03759766 93.45336914 C-136.50710441 88.78988516 -138.96787074 84.12208545 -141.41259766 79.44555664 C-142.92345662 76.55734133 -144.45255827 73.68429928 -146.03759766 70.83618164 C-146.57384766 69.84360352 -147.11009766 68.85102539 -147.66259766 67.82836914 C-148.12923828 66.99047852 -148.59587891 66.15258789 -149.07666016 65.28930664 C-151.3836434 58.48089266 -149.98061859 51.63004022 -148.03759766 44.89086914 C-147.8175708 44.11928467 -147.59754395 43.3477002 -147.37084961 42.55273438 C-140.43767219 19.55264123 -126.35629596 2.42957784 -105.64697266 -9.49975586 C-71.38776241 -27.48975211 -30.35846621 -24.45302359 0 0 Z "
     fill="#135085"
     transform="translate(570.03759765625,491.546630859375)"
     id="path12" />
  <path
     d="M0 0 C9.27965661 7.88692569 15.5505279 17.8657388 16.58984375 30.21875 C16.90372225 41.80810985 14.71703323 50.3532584 7.06640625 59.34375 C-2.30746828 69.01249807 -13.03174854 73.85841349 -26.50805664 74.31201172 C-38.79546563 74.49126917 -49.5040839 71.56190349 -58.68359375 62.96875 C-67.40527136 54.33680158 -70.90476639 46.09152886 -71.05859375 33.96875 C-71.11947753 21.13323146 -66.84607347 11.75487572 -58.203125 2.359375 C-41.88353554 -13.27519466 -17.52914504 -13.28050796 0 0 Z "
     fill="#F6AC48"
     transform="translate(538.68359375,524.03125)"
     id="path13" />
  <path
     d="M0 0 C1.36983032 0.00737183 1.36983032 0.00737183 2.76733398 0.01489258 C19.66519769 0.30269793 37.43729734 4.09885258 49.94140625 16.26171875 C55.6050928 22.46930839 58.48912519 27.80990443 58.375 36.375 C58.37016602 37.52137939 58.37016602 37.52137939 58.36523438 38.69091797 C58.13884281 48.40428715 56.05091943 57.86113094 53.9375 67.3125 C51.31170613 66.05970298 48.95837738 64.70589465 46.609375 62.9921875 C21.99166147 45.34432057 -7.32253395 33.67250512 -38.0625 38.3125 C-41.06472888 38.39481918 -44.06002172 38.37377507 -47.0625 38.3125 C-48.23993481 29.90225136 -44.42579123 23.22912462 -40.0625 16.3125 C-30.02908153 4.21112505 -15.14468965 -0.09748891 0 0 Z "
     fill="#135085"
     transform="translate(384.0625,208.6875)"
     id="path14" />
  <path
     d="M0 0 C10.85351553 8.29001853 15.86617713 18.93552348 17.9375 32.25 C17.28628174 32.18216309 16.63506348 32.11432617 15.96411133 32.04443359 C-20.81706616 28.42917573 -49.77379938 36.17141468 -79.55078125 57.59765625 C-82.0625 59.25 -82.0625 59.25 -84.0625 59.25 C-91.67245866 28.60632718 -91.67245866 28.60632718 -86.25 17.1875 C-77.12100935 4.19330997 -60.5059635 -2.94125721 -45.36328125 -6.08984375 C-30.63185036 -8.64063684 -13.03963036 -8.03451972 0 0 Z "
     fill="#135085"
     transform="translate(670.0625,215.75)"
     id="path15" />
  <path
     d="M0 0 C3.26169168 0.56725073 6.08227258 1.30432308 9.0625 2.75 C9.71347656 3.05421875 10.36445312 3.3584375 11.03515625 3.671875 C15.18881853 6.47951948 17.12413682 9.66763455 18.18505859 14.49438477 C18.52162589 16.30725983 18.84172361 18.1232423 19.1484375 19.94140625 C19.32627274 20.92404953 19.50410797 21.90669281 19.68733215 22.91911316 C20.26460498 26.13115066 20.8201389 29.34652183 21.375 32.5625 C21.77146065 34.79804366 22.16901211 37.03339413 22.56762695 39.26855469 C23.73414692 45.84189692 24.87134364 52.42006407 26 59 C26.15422424 59.89603943 26.30844849 60.79207886 26.46734619 61.715271 C28.24435745 72.04685399 29.95902625 82.38790829 31.63348389 92.73657227 C32.02166663 95.1338027 32.4113022 97.53079362 32.80126953 99.92773438 C33.86926891 106.49270923 34.93702119 113.05771992 35.99682617 119.62402344 C36.11502213 120.3560498 36.23321808 121.08807617 36.35499573 121.84228516 C36.58407854 123.26214675 36.81279739 124.68206713 37.04112244 126.10205078 C37.87022235 131.24463453 38.74386681 136.37870952 39.64697266 141.50878906 C40.14850489 145.0479557 40.1372254 148.43213971 40 152 C35.4472806 148.67351448 31.02864971 145.22391291 26.6875 141.625 C21.9641074 137.72737534 17.10050025 134.08874239 12.1171875 130.53125 C10 129 10 129 9 128 C8.76336229 126.08766259 8.59071859 124.1673738 8.44335938 122.24609375 C8.34655884 121.01391113 8.2497583 119.78172852 8.15002441 118.51220703 C8.0478838 117.15397505 7.94579362 115.79573927 7.84375 114.4375 C7.73591415 113.04798007 7.62763153 111.65849474 7.5189209 110.26904297 C7.23262402 106.5968324 6.95155735 102.92424081 6.67181396 99.25152588 C6.22539242 93.40142133 5.77122937 87.55191385 5.31684875 81.7024231 C5.15958903 79.66819202 5.00459873 77.6337982 4.84997559 75.59936523 C4.44688349 70.36336165 4.04262505 65.13558864 3.44311523 59.91796875 C3.09280675 56.82058549 2.84603382 53.79936454 2.75390625 50.6875 C2.72224365 49.76590088 2.69058105 48.84430176 2.65795898 47.89477539 C2.62645752 46.93949951 2.59495605 45.98422363 2.5625 45 C2.27643884 37.27387732 1.69715403 29.69835759 0.66479492 22.03930664 C-0.26994589 14.69670695 -0.17897655 7.38775406 0 0 Z "
     fill="#135085"
     transform="translate(558,334)"
     id="path16" />
  <path
     d="M0 0 C0.22516137 8.6544224 -0.48188786 17.21364287 -1.20703125 25.828125 C-1.33378203 27.37110856 -1.46014668 28.91412389 -1.58615112 30.45716858 C-1.92117032 34.54767507 -2.2610119 38.6377655 -2.60226059 42.7277565 C-3.1622917 49.44645317 -3.71650273 56.16563481 -4.27118111 62.88477516 C-4.40803745 64.54153904 -4.54509552 66.19828626 -4.68235588 67.85501671 C-5.49108049 77.62019171 -6.26914376 87.38585273 -6.9609375 97.16015625 C-7.02675522 98.07201691 -7.09257294 98.98387756 -7.16038513 99.92337036 C-7.44613862 103.88272945 -7.72139066 107.8420925 -7.97387695 111.80371094 C-8.0691978 113.13611267 -8.1650974 114.46847319 -8.26171875 115.80078125 C-8.33350342 116.89559814 -8.40528809 117.99041504 -8.47924805 119.1184082 C-9.36882504 124.04090106 -11.22067516 126.42943975 -15.22265625 129.359375 C-16.49746834 130.16444057 -17.77769564 130.96097897 -19.0625 131.75 C-24.95593763 135.50399514 -30.07726902 139.45555456 -35.14453125 144.28515625 C-37 146 -37 146 -39 147 C-39.80228264 136.02898754 -37.43210825 125.3153185 -35.5625 114.5625 C-35.20273424 112.45544444 -34.84369941 110.34826396 -34.48535156 108.2409668 C-33.53171326 102.64783493 -32.5664382 97.05677053 -31.59869385 91.46606445 C-30.79527063 86.81474449 -29.99937959 82.16214833 -29.20347595 77.50953674 C-28.22224909 71.7766291 -27.2366296 66.04448 -26.25 60.3125 C-26.0659964 59.24250763 -25.8819928 58.17251526 -25.69241333 57.07009888 C-24.48183168 50.04309251 -23.25316686 43.01953986 -22 36 C-21.82686279 35.0278656 -21.65372559 34.0557312 -21.4753418 33.05413818 C-20.9657539 30.21550574 -20.44574705 27.37899622 -19.921875 24.54296875 C-19.77260559 23.71025955 -19.62333618 22.87755035 -19.46954346 22.01960754 C-16.74146457 7.49154446 -16.74146457 7.49154446 -12.44140625 3.80859375 C-11.49136719 3.35613281 -10.54132813 2.90367187 -9.5625 2.4375 C-8.14130859 1.72400391 -8.14130859 1.72400391 -6.69140625 0.99609375 C-4 0 -4 0 0 0 Z "
     fill="#135186"
     transform="translate(465,336)"
     id="path17" />
  <path
     d="M0 0 C0.33 0.66 0.66 1.32 1 2 C0.37915039 3.69580078 0.37915039 3.69580078 -0.65234375 5.6953125 C-1.01650391 6.41074219 -1.38066406 7.12617188 -1.75585938 7.86328125 C-2.14580078 8.60964844 -2.53574219 9.35601562 -2.9375 10.125 C-3.32357422 10.87910156 -3.70964844 11.63320313 -4.10742188 12.41015625 C-5.06452132 14.27709097 -6.03136106 16.13902628 -7 18 C-6.34 18.66 -5.68 19.32 -5 20 C-6.98 20.66 -8.96 21.32 -11 22 C-9.54555549 18.89399665 -8.08577648 15.79052979 -6.625 12.6875 C-6.2125 11.80642578 -5.8 10.92535156 -5.375 10.01757812 C-4.97539062 9.17001953 -4.57578125 8.32246094 -4.1640625 7.44921875 C-3.61419678 6.27879028 -3.61419678 6.27879028 -3.05322266 5.0847168 C-2 3 -2 3 0 0 Z "
     fill="#F4C248"
     transform="translate(187,469)"
     id="path18" />
  <path
     d="M0 0 C0 0.66 0 1.32 0 2 C-1.7015625 2.2165625 -1.7015625 2.2165625 -3.4375 2.4375 C-6.80777201 2.61171478 -6.80777201 2.61171478 -8 4 C-9.85287502 4.07226502 -11.70833878 4.0838122 -13.5625 4.0625 C-14.57441406 4.05347656 -15.58632813 4.04445313 -16.62890625 4.03515625 C-17.41136719 4.02355469 -18.19382812 4.01195312 -19 4 C-19 3.67 -19 3.34 -19 3 C-17.02 2.67 -15.04 2.34 -13 2 C-13 1.67 -13 1.34 -13 1 C-11.20843648 0.83222817 -9.4167455 0.66581706 -7.625 0.5 C-6.62726563 0.4071875 -5.62953125 0.314375 -4.6015625 0.21875 C-2 0 -2 0 0 0 Z "
     fill="#F2F1EE"
     transform="translate(290,833)"
     id="path19" />
  <path
     d="M0 0 C0.66 0.33 1.32 0.66 2 1 C2 6.94 2 12.88 2 19 C1.67 19 1.34 19 1 19 C0.63923999 16.02149379 0.28609584 13.04243216 -0.0625 10.0625 C-0.16626953 9.21236328 -0.27003906 8.36222656 -0.37695312 7.48632812 C-0.47041016 6.67744141 -0.56386719 5.86855469 -0.66015625 5.03515625 C-0.74918213 4.2862915 -0.83820801 3.53742676 -0.92993164 2.76586914 C-0.9530542 2.18313232 -0.97617676 1.60039551 -1 1 C-0.67 0.67 -0.34 0.34 0 0 Z "
     fill="#F9F9F5"
     transform="translate(938,624)"
     id="path20" />
  <path
     d="M0 0 C2.60045875 2.3024119 3.84739183 4.49896677 5.1875 7.6875 C5.53167969 8.49574219 5.87585938 9.30398438 6.23046875 10.13671875 C6.48441406 10.75160156 6.73835937 11.36648438 7 12 C6.01 12 5.02 12 4 12 C1.03176403 8.23262357 0.46101836 4.70238725 0 0 Z "
     fill="#EBB147"
     transform="translate(787,373)"
     id="path21" />
  <path
     d="M0 0 C0 3 0 3 -1.75 4.82421875 C-2.4925 5.43910156 -3.235 6.05398438 -4 6.6875 C-4.7425 7.31011719 -5.485 7.93273437 -6.25 8.57421875 C-6.8275 9.04472656 -7.405 9.51523437 -8 10 C-8.66 9.67 -9.32 9.34 -10 9 C-6.7 6.03 -3.4 3.06 0 0 Z "
     fill="#041535"
     transform="translate(349,732)"
     id="path22" />
  <path
     d="M0 0 C7.75 -0.125 7.75 -0.125 10 1 C10 1.66 10 2.32 10 3 C7.03 3 4.06 3 1 3 C0.67 2.01 0.34 1.02 0 0 Z "
     fill="#5AB8DC"
     transform="translate(745,763)"
     id="path23" />
  <path
     d="M0 0 C0.66 0.66 1.32 1.32 2 2 C-0.17424117 4.50037734 -1.73045798 5.43628586 -5 6 C-3.35 4.02 -1.7 2.04 0 0 Z M-7 6 C-6.34 6.33 -5.68 6.66 -5 7 C-5.99 7 -6.98 7 -8 7 C-7.67 6.67 -7.34 6.34 -7 6 Z "
     fill="#EBEBEA"
     transform="translate(878,787)"
     id="path24" />
  <path
     d="M0 0 C1.32 0.66 2.64 1.32 4 2 C2.515 4.475 2.515 4.475 1 7 C0.34 6.67 -0.32 6.34 -1 6 C-0.67 4.02 -0.34 2.04 0 0 Z "
     fill="#EFEEEA"
     transform="translate(456,594)"
     id="path25" />
  <path
     d="M0 0 C0.99 0 1.98 0 3 0 C3 1.65 3 3.3 3 5 C1.02 5.99 1.02 5.99 -1 7 C-0.67 4.69 -0.34 2.38 0 0 Z "
     fill="#E4E4E1"
     transform="translate(458,281)"
     id="path26" />
  <path
     d="M0 0 C1.8871875 0.061875 1.8871875 0.061875 3.8125 0.125 C3.4825 1.115 3.1525 2.105 2.8125 3.125 C-0.4875 2.795 -3.7875 2.465 -7.1875 2.125 C-4.09861478 0.06574319 -3.47814073 -0.1140374 0 0 Z "
     fill="#ECECEA"
     transform="translate(659.1875,187.875)"
     id="path27" />
</svg>
