<?xml version="1.0" encoding="UTF-8" standalone="no"?>
<svg
   version="1.1"
   id="Layer_1"
   x="0px"
   y="0px"
   width="100%"
   viewBox="0 0 1024 1024"
   enable-background="new 0 0 1024 1024"
   xml:space="preserve"
   sodipodi:docname="loading.svg"
   inkscape:version="1.4.2 (f4327f4, 2025-05-13)"
   xmlns:inkscape="http://www.inkscape.org/namespaces/inkscape"
   xmlns:sodipodi="http://sodipodi.sourceforge.net/DTD/sodipodi-0.dtd"
   xmlns="http://www.w3.org/2000/svg"
   xmlns:svg="http://www.w3.org/2000/svg"><defs
   id="defs13" /><sodipodi:namedview
   id="namedview13"
   pagecolor="#ffffff"
   bordercolor="#000000"
   borderopacity="0.25"
   inkscape:showpageshadow="2"
   inkscape:pageopacity="0.0"
   inkscape:pagecheckerboard="0"
   inkscape:deskcolor="#d1d1d1"
   inkscape:zoom="1.1611328"
   inkscape:cx="512"
   inkscape:cy="511.56939"
   inkscape:window-width="1278"
   inkscape:window-height="1360"
   inkscape:window-x="1273"
   inkscape:window-y="0"
   inkscape:window-maximized="0"
   inkscape:current-layer="Layer_1" />
<path
   fill="#000000"
   opacity="1.000000"
   stroke="none"
   d=" M262.689087,183.032532   C261.784332,179.592056 260.691345,176.642319 260.648041,173.402939   C260.472534,160.267761 272.047089,152.639435 284.010071,158.549423   C300.316528,166.605194 317.280243,173.031815 334.147308,179.709183   C377.025085,196.683670 420.665955,211.369720 465.068604,223.872742   C489.528229,230.760193 512.958008,240.034943 533.255676,256.077606   C552.452820,271.250366 566.878540,290.088196 578.083191,311.617554   C579.229736,313.820709 580.374817,316.024689 581.910156,318.977600   C587.020508,314.396362 591.779602,310.121521 596.547974,305.857056   C610.197449,293.650085 623.241577,280.713867 638.268494,270.141510   C671.214355,246.962067 718.216614,250.779312 745.575500,278.806183   C750.694275,284.049988 755.475952,289.647888 759.262756,295.954712   C760.842041,298.584961 762.898254,299.440491 765.777222,299.675232   C778.888916,300.744080 791.840454,302.916443 804.690796,305.706390   C808.842773,306.607788 812.298828,308.257996 812.852173,313.145386   C813.380554,317.811798 811.436646,321.203247 807.558899,323.603577   C799.712280,328.460602 791.143005,331.711609 782.415222,334.491119   C765.184937,339.978424 752.705261,350.810028 744.222839,366.747833   C730.771118,392.022583 718.611023,418.135437 701.732300,441.358612   C665.773193,490.834290 618.317505,522.829468 557.401062,533.438965   C534.772400,537.380127 512.123352,537.153687 489.324310,534.584351   C470.969696,532.515930 452.885681,529.094971 434.786224,525.646606   C428.973785,524.539246 423.965942,525.956543 419.297546,529.382874   C405.595337,539.439514 392.681763,550.482727 379.663208,561.373962   C360.886780,577.082336 342.172119,592.859802 323.082153,608.189697   C317.506500,612.667114 312.284973,617.583069 306.767944,622.136658   C300.956024,626.933655 294.450806,627.619019 289.227478,624.261414   C284.457458,621.195251 282.574615,615.559021 284.249115,608.221069   C287.426910,594.295471 291.075348,580.470581 293.960968,566.486816   C296.504578,554.160400 297.411499,541.527344 300.473541,529.272339   C301.211334,526.319458 298.904236,525.279541 296.883698,524.013123   C276.147156,511.015900 255.351868,498.109100 234.763107,484.881134   C226.933350,479.850677 219.376724,474.346069 212.679932,467.775269   C208.156937,463.337402 207.028214,458.306366 209.121796,452.318024   C211.052185,446.796509 215.307281,444.740753 220.570404,444.141998   C231.215240,442.931000 241.852509,444.557312 252.439484,445.035187   C261.284943,445.434448 270.062042,445.196381 278.835693,444.913513   C314.601776,443.760498 349.562988,437.977661 383.303772,425.694061   C401.594543,419.035156 418.411560,409.692017 434.066986,398.145386   C437.551056,395.575714 437.534302,393.589813 434.632080,390.638885   C424.174469,380.005676 411.885620,371.659241 400.092255,362.700531   C355.338135,328.703369 317.193573,288.659973 288.265869,240.246384   C277.561401,222.331299 268.779755,203.488174 262.689087,183.032532  M633.445679,306.958893   C618.644165,320.380493 604.036804,334.025146 588.968811,347.140594   C579.844360,355.082703 571.825500,353.088348 565.928345,342.474091   C559.943115,331.701263 553.968994,320.918640 547.761414,310.273621   C531.349182,282.129028 507.789612,262.669403 476.311249,253.860794   C440.554901,243.855042 405.288025,232.388809 370.257935,220.155197   C348.261932,212.473511 326.156372,205.088287 304.483093,196.497681   C301.884674,195.467743 298.918610,192.356659 296.294342,195.113358   C293.824890,197.707413 296.595276,200.768494 297.731567,203.339432   C313.589264,239.218842 337.818970,269.256226 364.586853,297.303986   C387.890320,321.721619 414.933655,341.856720 441.989777,361.873199   C451.224457,368.705139 459.302887,376.467712 464.220673,387.055389   C468.098358,395.403809 467.106323,400.877380 460.607880,407.377319   C450.997284,416.990234 439.972076,424.755371 428.276703,431.535889   C387.391083,455.239899 342.344452,464.608276 296.048248,469.548981   C291.270203,470.058899 286.451416,470.197906 281.679932,470.753052   C279.669281,470.987000 277.788391,472.112335 276.932526,474.062286   C275.969330,476.256805 278.119598,477.238251 279.161346,478.638275   C281.045746,481.170898 284.065979,482.203613 286.621887,483.488403   C293.140015,486.764984 296.899109,493.193756 303.019165,496.826019   C309.205383,500.497559 314.517212,505.311951 319.971100,509.967896   C325.866486,515.000793 327.059845,520.967896 325.766937,528.346497   C323.106293,543.530579 320.982361,558.808716 318.697357,573.659485   C322.124756,576.138123 324.607788,575.133606 327.067261,572.880798   C329.396301,570.747437 331.967957,568.881287 334.396851,566.854431   C358.436279,546.793701 382.430756,526.678833 406.523773,506.682770   C414.329498,500.204376 423.068329,497.303833 433.438782,499.653656   C456.428375,504.862885 479.513000,509.341705 503.145416,510.988647   C523.082520,512.378113 542.776184,511.411499 562.150208,507.050476   C616.269287,494.868378 657.246460,463.789978 687.589783,418.025024   C700.492737,398.564240 711.068848,377.754395 721.758728,357.032227   C727.283875,346.321838 733.256226,335.987396 742.788635,328.182861   C744.522156,326.763580 746.428345,325.244537 747.061707,322.578308   C744.100037,319.936859 741.465637,316.959381 739.606201,313.363708   C735.474182,305.373169 729.404724,299.045258 722.499817,293.417633   C704.243225,278.538116 671.994934,274.984650 651.990662,291.452728   C645.949951,296.425598 639.682312,301.119568 633.445679,306.958893  z"
   id="path1"
   style="stroke-width:1;stroke-dasharray:none;fill:#182b3e;fill-opacity:1;stroke:#000000;stroke-opacity:1" />
<path
   fill="#000000"
   opacity="1.000000"
   stroke="none"
   d=" M594.190979,702.827148   C609.992554,698.707703 625.487122,694.995422 640.718506,690.231506   C648.890808,687.675476 656.753235,692.900940 658.949707,701.423096   C661.010437,709.418640 657.012878,716.628174 649.046997,718.912903   C634.047424,723.215027 619.057861,727.557678 603.780518,730.818115   C594.873352,732.718933 588.335938,729.432861 585.444275,721.389893   C582.815918,714.079285 586.109924,706.823669 594.190979,702.827148  z"
   id="path2"
   style="fill:#182b3e;fill-opacity:1" />
<path
   fill="#000000"
   opacity="1.000000"
   stroke="none"
   d=" M542.132690,811.767700   C544.415833,804.850952 549.297363,801.978577 555.783447,801.322632   C561.887451,800.705383 566.320740,803.257629 569.556213,808.418823   C577.865112,821.672913 586.396301,834.788513 594.622925,848.092834   C598.860596,854.945984 596.552185,863.448181 589.754333,867.650574   C582.503113,872.133179 574.091187,870.475098 569.662292,863.572266   C561.303467,850.544250 553.055664,837.444885 544.667664,824.435791   C542.206116,820.618225 540.950562,816.667908 542.132690,811.767700  z"
   id="path3"
   style="fill:#182b3e;fill-opacity:1" />
<path
   fill="#000000"
   opacity="1.000000"
   stroke="none"
   d=" M409.867096,726.353271   C399.665710,723.663635 389.889954,720.965088 380.065430,718.457581   C370.096802,715.913269 365.567322,710.301086 367.240662,702.226929   C369.262726,692.469971 375.955017,687.681274 385.964111,689.895874   C400.884125,693.197021 415.680145,697.070679 430.488373,700.859253   C436.635132,702.431885 440.723663,706.337830 441.876587,712.769226   C442.895203,718.451538 441.104340,723.246765 436.879547,727.171570   C432.891388,730.876587 428.104462,730.920593 423.262939,729.904236   C418.882233,728.984680 414.598083,727.604980 409.867096,726.353271  z"
   id="path4"
   style="fill:#182b3e;fill-opacity:1" />
<path
   fill="#000000"
   opacity="1.000000"
   stroke="none"
   d=" M459.154480,804.001709   C470.292267,797.354858 480.896271,801.151367 483.905975,812.412598   C484.901001,816.135681 483.960632,819.458740 481.979126,822.386780   C473.105164,835.499756 465.614075,849.430847 457.542419,863.019775   C452.757782,871.074829 443.625458,872.830200 436.038300,867.637634   C429.830719,863.389160 428.049255,856.340515 431.851013,849.148499   C435.270477,842.679749 439.081177,836.411133 442.873566,830.147644   C448.128723,821.468323 453.528259,812.876404 459.154480,804.001709  z"
   id="path5"
   style="fill:#182b3e;fill-opacity:1" />
<path
   fill="#000000"
   opacity="1.000000"
   stroke="none"
   d=" M573.933350,683.546997   C565.538879,685.376465 559.744141,683.359375 556.034973,677.600159   C552.308716,671.814270 552.793518,665.392822 557.784058,659.132141   C566.707886,647.937012 575.698792,636.793213 584.808350,625.748901   C590.776733,618.512939 599.707703,617.607666 606.410278,623.271790   C612.721191,628.604736 613.454163,638.000793 607.964233,644.794373   C599.177002,655.668335 590.340637,666.502991 581.457520,677.298645   C579.457520,679.729309 577.397949,682.188660 573.933350,683.546997  z"
   id="path6"
   style="fill:#182b3e;fill-opacity:1" />
<path
   fill="#000000"
   opacity="1.000000"
   stroke="none"
   d=" M521.292114,815.453674   C525.790283,818.567017 527.369751,822.534180 527.419128,827.628540   C527.564270,842.588989 528.094116,857.545227 528.370972,872.505066   C528.554199,882.400696 523.237000,888.293274 514.060059,888.619873   C505.327118,888.930664 499.089874,883.311157 498.851257,873.730652   C498.457764,857.929504 498.393555,842.104431 498.796082,826.304871   C499.060547,815.925415 510.058533,810.715759 521.292114,815.453674  z"
   id="path7"
   style="fill:#182b3e;fill-opacity:1" />
<path
   fill="#000000"
   opacity="1.000000"
   stroke="none"
   d=" M373.850830,787.598511   C375.481140,782.362122 378.911163,779.577148 383.515472,777.741638   C397.108459,772.322754 410.638611,766.745972 424.186615,761.214478   C432.251495,757.921753 440.442566,760.555969 443.865326,767.574829   C447.596161,775.225464 444.938995,784.328613 436.804199,787.780945   C421.973328,794.075195 406.951477,800.008423 391.709320,805.213806   C381.356018,808.749634 373.357422,800.585449 373.850830,787.598511  z"
   id="path8"
   style="fill:#182b3e;fill-opacity:1" />
<path
   fill="#000000"
   opacity="1.000000"
   stroke="none"
   d=" M635.779663,775.116577   C638.337585,776.036011 640.538574,776.797485 642.734741,777.572571   C650.854858,780.438538 654.613159,787.624939 652.233154,795.725891   C650.010376,803.291382 642.379150,807.840515 634.462158,805.201111   C619.799561,800.312866 605.320312,794.856934 590.866455,789.369385   C585.673340,787.397766 581.796204,783.691833 580.789856,777.875732   C578.723450,765.933228 589.027588,757.391357 600.457397,761.633057   C612.150513,765.972473 623.769226,770.512573 635.779663,775.116577  z"
   id="path9"
   style="fill:#182b3e;fill-opacity:1" />
<path
   fill="#000000"
   opacity="1.000000"
   stroke="none"
   d=" M459.570374,648.452209   C462.523865,652.081848 465.361542,655.351929 467.969513,658.795898   C473.365692,665.921875 472.541351,675.142212 466.184601,680.209473   C459.364563,685.646057 450.380676,684.595703 444.634308,677.445984   C435.573883,666.172852 426.591797,654.834839 417.715820,643.416077   C412.591400,636.823730 413.591766,627.630493 419.672302,622.866089   C426.382202,617.608521 435.841888,618.513428 441.117279,625.072510   C447.264771,632.716003 453.278625,640.467041 459.570374,648.452209  z"
   id="path10"
   style="fill:#182b3e;fill-opacity:1" />
<path
   fill="#000000"
   opacity="1.000000"
   stroke="none"
   d=" M497.844849,636.225586   C499.269531,626.487915 498.297333,617.163818 498.571625,607.871948   C498.840485,598.763550 504.833893,592.527527 513.425903,592.685364   C522.441956,592.851074 528.567749,599.271912 528.297607,608.478027   C527.903442,621.914551 527.186890,635.334290 527.180786,648.791138   C527.175659,660.142883 521.244995,666.466919 511.908905,666.299866   C503.663574,666.152344 497.799683,660.399841 497.681641,652.156433   C497.607880,647.006592 497.770782,641.853394 497.844849,636.225586  z"
   id="path11"
   style="fill:#182b3e;fill-opacity:1" />
<path
   fill="#000000"
   opacity="1.000000"
   stroke="none"
   d=" M676.377808,321.949280   C677.732178,309.998871 685.549500,303.976990 695.744324,306.643005   C703.341858,308.629822 707.665405,314.363312 707.312195,321.983215   C706.948975,329.819550 700.930969,335.850494 692.448730,336.878662   C686.463806,337.604126 679.256531,332.640747 677.139404,326.250031   C676.725037,324.999298 676.621643,323.645569 676.377808,321.949280  z"
   id="path12"
   style="fill:#182b3e;fill-opacity:1" />

</svg>
