<?xml version="1.0" encoding="UTF-8"?>
<svg version="1.1" xmlns="http://www.w3.org/2000/svg" width="1024" height="1024">
<!-- <path d="M0 0 C337.92 0 675.84 0 1024 0 C1024 337.92 1024 675.84 1024 1024 C686.08 1024 348.16 1024 0 1024 C0 686.08 0 348.16 0 0 Z " fill="#FDFAF0" transform="translate(0,0)"/> -->
<path d="M0 0 C0.68225647 0.00465271 1.36451294 0.00930542 2.06744385 0.01409912 C33.80614016 0.26769657 61.0637321 11.1429999 84 33.1875 C90.30421083 39.70627878 95.8953624 46.92719704 100.8671875 54.5078125 C101.83011719 55.95800781 101.83011719 55.95800781 102.8125 57.4375 C103.34875 58.29472656 103.885 59.15195313 104.4375 60.03515625 C110.14392959 65.65711566 119.44287975 67.25269167 127.01953125 69.21484375 C128.92399845 69.72527637 130.82829045 70.2363631 132.73242188 70.74804688 C135.69078767 71.53623811 138.65027069 72.31908041 141.61303711 73.09057617 C144.50280005 73.84605263 147.38624192 74.62257973 150.26953125 75.40234375 C151.15292679 75.62647446 152.03632233 75.85060516 152.94648743 76.08152771 C158.14295792 77.50550778 161.39201493 78.96123466 164.8125 83.375 C165.51333383 87.11278044 165.2291373 88.70776911 163.21484375 91.93359375 C160.17950449 95.01828812 158.02081239 95.51046397 153.8125 96.4375 C153.11970947 96.59613525 152.42691895 96.75477051 151.71313477 96.91821289 C146.93051 97.99164762 142.11600946 98.90036952 137.30224609 99.8215332 C114.0331892 104.005662 114.0331892 104.005662 96 118.0625 C88.24708579 130.17757398 85.55828376 141.1393274 86.8125 155.375 C87.59085848 158.88917296 88.61526865 162.22015261 89.73046875 165.640625 C91.6830186 172.37938909 92.49282208 179.32243714 93.48779297 186.25537109 C93.90213001 188.96008851 94.4576113 191.63089995 95 194.3125 C98.68430422 217.2685494 94.95256635 243.44841326 87.8125 265.375 C87.42243757 266.71034283 87.03453588 268.04631812 86.6484375 269.3828125 C79.35142584 293.73752212 66.75326562 315.71993749 50.8125 335.375 C50.35504395 335.9421875 49.89758789 336.509375 49.42626953 337.09375 C33.17777292 357.08503454 14.0747386 371.63979424 -8.1875 384.375 C-8.90421875 384.79168945 -9.6209375 385.20837891 -10.359375 385.63769531 C-39.74931462 402.61823772 -72.61681338 409.28134428 -106.1875 411.375 C-104.84946542 414.38374098 -103.41165624 416.35885643 -100.9921875 418.58203125 C-100.36272217 419.16509033 -99.73325684 419.74814941 -99.0847168 420.34887695 C-98.41738525 420.95562256 -97.75005371 421.56236816 -97.0625 422.1875 C-96.03926636 423.12952271 -96.03926636 423.12952271 -94.99536133 424.09057617 C-91.06919044 427.69444595 -87.11274055 431.26042192 -83.07421875 434.73828125 C-79.88013459 437.50913273 -76.75755193 440.35961059 -73.62109375 443.1953125 C-71.52049385 445.07674868 -69.39337949 446.91782694 -67.25 448.75 C-63.96222557 451.60204529 -60.92196615 454.64261243 -57.875 457.75 C-53.4399658 462.27067943 -48.73043891 466.28391725 -43.78125 470.23046875 C-40.00406292 473.35347433 -36.44832553 476.71241087 -33.1875 480.375 C-33.1875 480.705 -33.1875 481.035 -33.1875 481.375 C-37.52077584 481.43348483 -41.85394885 481.46875916 -46.1875 481.5 C-47.40824219 481.51675781 -48.62898438 481.53351563 -49.88671875 481.55078125 C-62.26633004 481.61769807 -70.53118248 479.65864656 -79.69921875 471.00390625 C-81.41019969 469.28244457 -83.10935233 467.54915112 -84.796875 465.8046875 C-86.79881248 463.77003862 -88.82211188 461.90180887 -91 460.0625 C-95.32922295 456.36553679 -99.29300476 452.32568842 -103.26879883 448.2565918 C-106.11618155 445.36330491 -109.02415409 442.61360509 -112.1015625 439.96484375 C-116.31062297 436.32846511 -120.17646241 432.41259261 -124.0625 428.4375 C-126.1488325 426.35044841 -128.24304524 424.27181181 -130.34277344 422.19824219 C-131.86397585 420.69475627 -133.3748197 419.18079728 -134.8828125 417.6640625 C-139.43324033 413.51468933 -143.24663507 411.89117957 -149.3203125 410.8359375 C-150.01520782 410.71424698 -150.71010315 410.59255646 -151.42605591 410.46717834 C-159.93777725 409.01384387 -168.49689799 407.89298092 -177.0625 406.8125 C-177.90668488 406.70450073 -178.75086975 406.59650146 -179.62063599 406.48522949 C-193.31467942 404.73971238 -206.98200124 403.44092393 -220.76123047 402.56445312 C-222.92488502 402.39550606 -225.0444201 402.13832355 -227.19140625 401.828125 C-235.89089109 400.68667632 -244.38721208 401.46417527 -253 402.87109375 C-253.97614258 403.02409439 -254.95228516 403.17709503 -255.95800781 403.33473206 C-257.99883223 403.65615659 -260.0390353 403.98154994 -262.07861328 404.31079102 C-265.20604098 404.81549213 -268.33518285 405.30818374 -271.46484375 405.79882812 C-273.45583802 406.11389621 -275.4467275 406.42962741 -277.4375 406.74609375 C-278.37182861 406.89404892 -279.30615723 407.04200409 -280.26879883 407.19444275 C-281.56660278 407.40454735 -281.56660278 407.40454735 -282.890625 407.61889648 C-283.65020508 407.74103012 -284.40978516 407.86316376 -285.19238281 407.98899841 C-287.38364514 408.36801096 -287.38364514 408.36801096 -290.1875 409.375 C-299.73804249 410.26443984 -299.73804249 410.26443984 -303.9375 407.6875 C-305.1875 405.375 -305.1875 405.375 -305.046875 403.2421875 C-303.83788072 399.20854295 -301.80516898 395.80982853 -299.6875 392.1875 C-298.86439341 390.75661965 -298.04146821 389.32563494 -297.21875 387.89453125 C-296.85330078 387.26651611 -296.48785156 386.63850098 -296.11132812 385.99145508 C-295.43380255 384.80596438 -294.79814378 383.59628755 -294.1875 382.375 C-332.1375 382.375 -370.0875 382.375 -409.1875 382.375 C-406.25430755 380.02844604 -403.40466103 377.76443348 -400.359375 375.59765625 C-399.65047119 375.09073242 -398.94156738 374.58380859 -398.21118164 374.06152344 C-397.4608667 373.5255957 -396.71055176 372.98966797 -395.9375 372.4375 C-385.01435507 364.58813185 -374.16459987 356.60833104 -363.875 347.9375 C-358.19145079 343.22557115 -352.14135063 339.08220857 -346.0793457 334.87915039 C-333.03646192 325.82565548 -320.2903061 316.38688817 -307.85107422 306.51953125 C-306.45510281 305.41916545 -305.04117059 304.34133333 -303.61328125 303.28271484 C-301.06690463 301.35126435 -301.06690463 301.35126435 -298.52734375 298.76806641 C-287.20014844 288.34942138 -273.36245239 290.03427985 -258.8125 290.25 C-256.22656192 290.2519448 -253.64061631 290.24937972 -251.0546875 290.2421875 C-244.76433362 290.23441496 -238.47722537 290.28782829 -232.1875 290.375 C-229.2175 284.765 -226.2475 279.155 -223.1875 273.375 C-225.13035889 273.36041748 -227.07321777 273.34583496 -229.07495117 273.33081055 C-235.50122021 273.27912042 -241.92723886 273.21382404 -248.35328197 273.13928509 C-252.2486024 273.09459777 -256.14381864 273.05533827 -260.03930664 273.02856445 C-263.80018221 273.00251476 -267.5606565 272.9621012 -271.32128334 272.91181374 C-272.75450961 272.89515616 -274.18780528 272.88363495 -275.62111473 272.87738609 C-277.63188081 272.86773389 -279.64251962 272.83796348 -281.65307617 272.80737305 C-282.79669113 272.79626999 -283.94030609 272.78516693 -285.11857605 272.77372742 C-288.49702292 272.33478549 -290.42485435 271.32055151 -293.1875 269.375 C-293.5175 270.365 -293.8475 271.355 -294.1875 272.375 C-296.27734375 274.1796875 -296.27734375 274.1796875 -299.125 276.25 C-299.65222656 276.63655762 -300.17945313 277.02311523 -300.72265625 277.42138672 C-302.53797477 278.74816489 -304.36180719 280.06253744 -306.1875 281.375 C-307.55341425 282.35933499 -308.91929855 283.34371155 -310.28515625 284.328125 C-312.51748142 285.93665677 -314.74997776 287.54494014 -316.98364258 289.15161133 C-326.89958571 296.30117614 -336.6428568 303.68155787 -346.40039062 311.04492188 C-354.49309733 317.14994623 -362.62575936 323.17483853 -370.90625 329.0234375 C-374.00246601 331.22396414 -377.0378773 333.50074453 -380.07177734 335.78613281 C-383.77911073 338.57026917 -387.51599886 341.31429365 -391.25 344.0625 C-392.07927002 344.67335449 -392.90854004 345.28420898 -393.76293945 345.91357422 C-397.57008423 348.71691414 -401.37917769 351.51750173 -405.1953125 354.30859375 C-405.81059814 354.7586377 -406.42588379 355.20868164 -407.05981445 355.67236328 C-408.26657655 356.55499574 -409.47344447 357.43748354 -410.68041992 358.31982422 C-414.63437859 361.21708009 -418.55687597 364.15363159 -422.46875 367.10742188 C-443.05723855 382.64481668 -443.05723855 382.64481668 -451.16137695 382.60205078 C-452.60230461 382.60182419 -452.60230461 382.60182419 -454.07234192 382.60159302 C-455.0964769 382.59127045 -456.12061188 382.58094788 -457.17578125 382.5703125 C-458.23411667 382.5674826 -459.29245209 382.56465271 -460.38285828 382.56173706 C-463.75535498 382.5505629 -467.12758387 382.52546307 -470.5 382.5 C-472.7897097 382.48996664 -475.07942357 382.48084141 -477.36914062 382.47265625 C-482.97535143 382.4506326 -488.58140658 382.41718236 -494.1875 382.375 C-494.61140665 376.47176422 -494.91765544 370.57753616 -495.12133789 364.66259766 C-495.2062691 362.65744744 -495.32188963 360.6533331 -495.4699707 358.65185547 C-496.63551114 342.4794778 -496.63551114 342.4794778 -492.54260254 337.28900146 C-488.50659804 333.60823576 -483.99057249 330.9183947 -479.15748596 328.41374207 C-476.72875933 327.13311339 -474.52754744 325.61821816 -472.3125 324 C-471.55839844 323.47277344 -470.80429687 322.94554687 -470.02734375 322.40234375 C-460.37166387 315.50922428 -450.81263437 308.47524633 -441.5 301.125 C-436.78738269 297.45024463 -431.9208282 294.28345648 -426.8125 291.1875 C-421.96285986 288.24695853 -417.88356801 285.45734006 -414.0703125 281.21484375 C-409.87344502 277.1137554 -404.75834203 273.94828119 -399.94775391 270.60498047 C-397.31780657 268.76730021 -394.72043735 266.8859944 -392.125 265 C-391.28839844 264.39414062 -390.45179688 263.78828125 -389.58984375 263.1640625 C-387.943752 261.93819254 -386.32468782 260.67542256 -384.73046875 259.3828125 C-382.09253342 257.30001871 -379.37714887 255.46097042 -376.5625 253.625 C-370.63859851 249.71493103 -364.89193753 245.59718211 -359.1875 241.375 C-363.54633242 237.79453051 -368.1014401 234.52851415 -372.6875 231.25 C-378.23194656 227.26855293 -383.73438087 223.25024003 -389.125 219.0625 C-397.06479998 212.90041624 -405.08635138 206.94279546 -413.60546875 201.6015625 C-414.12753906 201.19679688 -414.64960938 200.79203125 -415.1875 200.375 C-415.1875 199.715 -415.1875 199.055 -415.1875 198.375 C-416.2703125 198.0346875 -416.2703125 198.0346875 -417.375 197.6875 C-420.13838145 196.39792199 -421.51099214 195.04428426 -423.55859375 192.85546875 C-426.48827787 190.19275824 -429.93031383 188.27576511 -433.28515625 186.1953125 C-440.0742807 181.93726136 -446.51103393 177.22136936 -452.7890625 172.24609375 C-456.21730273 169.57161969 -459.70392189 166.97677721 -463.1875 164.375 C-471.00341042 158.53181747 -478.81819839 152.68799588 -486.5625 146.75 C-487.60148437 145.95335937 -488.64046875 145.15671875 -489.7109375 144.3359375 C-492.1875 142.375 -492.1875 142.375 -494.1875 140.375 C-494.36275055 137.57815203 -494.41893189 134.8817192 -494.3828125 132.0859375 C-494.3799826 131.26751373 -494.37715271 130.44908997 -494.37423706 129.60586548 C-494.36302532 126.98709607 -494.33791929 124.36866636 -494.3125 121.75 C-494.30247147 119.97656743 -494.2933454 118.20312951 -494.28515625 116.4296875 C-494.26308278 112.07799374 -494.22854644 107.7265545 -494.1875 103.375 C-481.16335788 103.25748622 -468.14518894 103.33117064 -455.125 103.6875 C-453.35237793 103.72121704 -453.35237793 103.72121704 -451.54394531 103.75561523 C-441.30444168 104.08066714 -434.96588461 107.21292566 -426.8125 113.125 C-425.68497314 113.93179199 -425.68497314 113.93179199 -424.53466797 114.75488281 C-420.0431773 117.98408456 -415.623594 121.28774732 -411.29296875 124.73046875 C-407.86328879 127.40930968 -404.32188694 129.93312326 -400.796875 132.484375 C-396.13913693 135.8591433 -391.53907122 139.29200428 -387.0390625 142.875 C-380.30631381 148.23016548 -373.50294481 153.29600136 -366.390625 158.140625 C-362.02946226 161.18280193 -357.84481435 164.43341765 -353.6484375 167.6953125 C-344.76282493 174.59831308 -335.76340947 181.36222183 -326.5078125 187.76171875 C-324.06701044 189.45877473 -321.65531953 191.19051716 -319.25 192.9375 C-318.36733963 193.5599057 -317.48467926 194.1823114 -316.57527161 194.82357788 C-314.0206246 196.680721 -311.69183079 198.69676236 -309.35038757 200.81509399 C-296.15735381 212.26628131 -285.29358264 213.34342248 -268.26953125 212.9609375 C-265.83046118 212.95725399 -263.39137469 212.95977678 -260.95231628 212.96817017 C-254.59702961 212.9736733 -248.2455041 212.89607386 -241.89105225 212.79986572 C-235.38130028 212.71644009 -228.87153376 212.71338068 -222.36132812 212.703125 C-209.63552126 212.6714503 -196.91203767 212.55452898 -184.1875 212.375 C-183.94257813 211.69050781 -183.69765625 211.00601563 -183.4453125 210.30078125 C-181.95995937 206.84572071 -180.06344838 203.7336143 -178.0625 200.5625 C-177.68996094 199.96501953 -177.31742187 199.36753906 -176.93359375 198.75195312 C-176.0217952 197.29073749 -175.10514024 195.83255415 -174.1875 194.375 C-174.75126815 194.37629882 -175.3150363 194.37759764 -175.89588833 194.37893581 C-189.64377912 194.40819784 -203.3911662 194.39823544 -217.13899899 194.34653378 C-223.78761101 194.32270568 -230.43555819 194.31171915 -237.08422852 194.33032227 C-243.50362242 194.34780739 -249.92211747 194.33124408 -256.34140205 194.29132271 C-258.78731296 194.28204657 -261.23330191 194.28492675 -263.67918205 194.30030632 C-267.11255867 194.31979459 -270.54311261 194.29560444 -273.97631836 194.26147461 C-274.98189285 194.2772908 -275.98746735 194.29310699 -277.02351379 194.30940247 C-284.74495275 194.16223588 -288.57818301 191.45994546 -294.1875 186.375 C-295.61603393 185.29909875 -297.05591467 184.23792332 -298.51171875 183.19921875 C-299.22368408 182.68609131 -299.93564941 182.17296387 -300.66918945 181.64428711 C-301.39710693 181.12229736 -302.12502441 180.60030762 -302.875 180.0625 C-303.64739014 179.5063501 -304.41978027 178.9502002 -305.21557617 178.37719727 C-308.9000679 175.72644284 -312.59105649 173.08499027 -316.2890625 170.453125 C-316.91852783 170.00493408 -317.54799316 169.55674316 -318.1965332 169.0949707 C-319.35801822 168.26902231 -320.52053716 167.44452497 -321.68432617 166.62182617 C-324.13956273 164.87824142 -326.53060552 163.09822156 -328.875 161.20703125 C-331.23151892 159.23529812 -331.23151892 159.23529812 -334.375 157.625 C-338.4589288 155.36693137 -341.91960981 152.45963916 -345.51953125 149.5078125 C-348.15793198 147.3986371 -350.86435784 145.44544541 -353.625 143.5 C-357.58112313 140.66783872 -361.14341324 137.644849 -364.6875 134.3125 C-368.98723445 130.31161235 -373.36270059 127.18661358 -378.37109375 124.14453125 C-387.46110387 118.4333321 -396.13447159 111.47688332 -404.1875 104.375 C-404.1875 104.045 -404.1875 103.715 -404.1875 103.375 C-369.28205917 103.35208104 -334.37662007 103.33447506 -299.47117334 103.32393467 C-295.34463313 103.32268405 -291.21809293 103.32138972 -287.09155273 103.32006836 C-286.27007771 103.31980605 -285.44860269 103.31954374 -284.60223449 103.31927348 C-271.32365379 103.31492931 -258.04507745 103.30704867 -244.76649933 103.2978472 C-231.12830751 103.28847578 -217.49011796 103.28293701 -203.85192305 103.28091151 C-195.4452451 103.27954352 -187.03857948 103.27523226 -178.63190532 103.26708353 C-172.85698829 103.261773 -167.08207758 103.26020545 -161.30715828 103.26149862 C-157.98182428 103.2621353 -154.65652887 103.26064371 -151.33119583 103.25579453 C-125.71893746 103.22029282 -125.71893746 103.22029282 -113.1875 104.375 C-112.94890259 103.57058472 -112.71030518 102.76616943 -112.46447754 101.93737793 C-111.48510608 98.64307739 -110.4922953 95.35292985 -109.5 92.0625 C-108.99049805 90.34063477 -108.99049805 90.34063477 -108.47070312 88.58398438 C-106.23439781 81.20626684 -103.54807944 74.3084711 -100.1875 67.375 C-99.5465667 65.99102815 -98.90591537 64.60692567 -98.265625 63.22265625 C-86.55687306 38.6852123 -66.42610726 17.21447749 -40.58203125 7.58203125 C-36.15486637 6.0363222 -31.70128209 4.64384473 -27.1875 3.375 C-26.30215576 3.10574707 -25.41681152 2.83649414 -24.50463867 2.55908203 C-16.28976849 0.23478088 -8.5062484 -0.09094797 0 0 Z " fill="#012640" transform="translate(614.1875,145.625)"/>
<path d="M0 0 C1.11963135 0.28931396 2.2392627 0.57862793 3.39282227 0.87670898 C18.390165 4.87046852 29.3187214 13.11432874 40 24 C40.88558594 24.89847656 41.77117187 25.79695313 42.68359375 26.72265625 C47.32352182 31.63765025 51.34255112 36.77402922 55.1875 42.3125 C61.09906846 50.79520361 66.38280864 55.26097981 76 59 C77.010625 59.4125 78.02125 59.825 79.0625 60.25 C79.701875 60.4975 80.34125 60.745 81 61 C80.67 61.99 80.34 62.98 80 64 C77.2265625 65.2890625 77.2265625 65.2890625 73.625 66.625 C58.35019177 72.69931859 48.59562965 84.6178137 41.51171875 99.02734375 C34.55558191 116.13356196 36.68683537 136.36138763 41.41796875 153.81347656 C52.28972852 194.65554054 44.75104418 240.66682249 23.65234375 277.12890625 C15.84569485 290.18321048 6.40756291 301.92978328 -4 313 C-4.58523438 313.6496875 -5.17046875 314.299375 -5.7734375 314.96875 C-14.97878502 324.77706788 -26.61131593 332.45812996 -38.1328125 339.28125 C-40.10668557 340.46449816 -42.03843674 341.71998281 -43.9296875 343.03125 C-47.19601797 345.12569091 -50.400507 346.5586361 -54 348 C-55.82337891 348.7425 -55.82337891 348.7425 -57.68359375 349.5 C-61.45164533 351.01029174 -65.22549367 352.50592458 -69 354 C-69.721875 354.29003906 -70.44375 354.58007812 -71.1875 354.87890625 C-73.11204335 355.630681 -75.04735476 356.32408434 -77 357 C-78.08796875 357.37898438 -79.1759375 357.75796875 -80.296875 358.1484375 C-119.94838493 371.49555637 -161.50395998 368.63267555 -202.46411133 364.75488281 C-214.95625374 363.59495547 -227.48197293 362.82185063 -240 362 C-237.58192325 358.37288488 -236.53376476 358.2836431 -232.4375 357.125 C-230.67212891 356.61259766 -230.67212891 356.61259766 -228.87109375 356.08984375 C-227.58082415 355.72622531 -226.29045745 355.36295122 -225 355 C-197.16653863 347.03655693 -170.37603338 337.18762997 -143.96582031 325.32421875 C-141.23227358 324.10370859 -138.4901038 322.90647098 -135.7421875 321.71875 C-105.3563462 308.49754342 -73.40748372 290.9602065 -52 265 C-51.40960937 264.3090625 -50.81921875 263.618125 -50.2109375 262.90625 C-41.13845571 252.00433773 -31.73146929 239.47204614 -27 226 C-26.77731445 225.40413086 -26.55462891 224.80826172 -26.32519531 224.19433594 C-20.19635743 207.39586126 -19.04219948 187.0408705 -25 170 C-25.24363281 169.24847656 -25.48726562 168.49695313 -25.73828125 167.72265625 C-32.04745926 151.18722762 -45.42621839 139.04789742 -61.16699219 131.79833984 C-76.75045648 125.01118904 -97.80196514 125.95972263 -113.703125 131.2265625 C-130.75493383 137.9496325 -145.08431287 148.30596252 -158.48828125 160.69921875 C-160.55710081 162.59429608 -162.65620335 164.43097326 -164.78125 166.26171875 C-169.10612487 170.0346755 -173.15579643 174.04314127 -177.1875 178.125 C-177.87263672 178.81464844 -178.55777344 179.50429688 -179.26367188 180.21484375 C-180.58223197 181.54228731 -181.89983257 182.87068487 -183.21630859 184.20019531 C-185.47007945 186.47432599 -187.73383091 188.73823124 -190 191 C-188.65048769 187.10293895 -186.94239929 184.48239317 -184.25 181.375 C-180.10500228 176.43009044 -176.24084052 171.3365698 -172.4375 166.125 C-167.32427951 159.12910208 -162.13771589 152.19668774 -156.875 145.3125 C-156.20331787 144.43223145 -155.53163574 143.55196289 -154.83959961 142.64501953 C-152.3148217 139.33668986 -149.78997147 136.02846593 -147.25488281 132.72802734 C-134.14427589 115.6486159 -124.27376463 99.01652704 -118.73138428 78.08740234 C-113.9945928 60.31692506 -109.06814097 43.3581108 -97 29 C-96.28972656 28.14019531 -95.57945312 27.28039062 -94.84765625 26.39453125 C-70.94684288 -1.37073701 -34.85749443 -9.36495553 0 0 Z " fill="#3389C3" transform="translate(643,168)"/>
<path d="M0 0 C13.02414212 -0.11751378 26.04231106 -0.04382936 39.0625 0.3125 C40.83512207 0.34621704 40.83512207 0.34621704 42.64355469 0.38061523 C52.88305832 0.70566714 59.22161539 3.83792566 67.375 9.75 C68.12668457 10.28786133 68.87836914 10.82572266 69.65283203 11.37988281 C74.1443227 14.60908456 78.563906 17.91274732 82.89453125 21.35546875 C86.32421121 24.03430968 89.86561306 26.55812326 93.390625 29.109375 C98.04836307 32.4841433 102.64842878 35.91700428 107.1484375 39.5 C113.88118619 44.85516548 120.68455519 49.92100136 127.796875 54.765625 C132.15803774 57.80780193 136.34268565 61.05841765 140.5390625 64.3203125 C149.42467507 71.22331308 158.42409053 77.98722183 167.6796875 84.38671875 C170.12048956 86.08377473 172.53218047 87.81551716 174.9375 89.5625 C175.81987839 90.1849057 176.70225677 90.8073114 177.6113739 91.44857788 C180.16725866 93.30674323 182.49994723 95.32312177 184.84480286 97.44009399 C197.98835775 108.8296976 208.74202637 109.97056862 225.69921875 109.5859375 C228.11586855 109.58225387 230.53253494 109.58477705 232.94917297 109.59317017 C239.24529067 109.59867265 245.53761086 109.52108171 251.83288574 109.42486572 C258.28231303 109.34143186 264.73175534 109.33838025 271.18164062 109.328125 C283.78896934 109.29645268 296.39395257 109.17954145 309 109 C306.658528 113.11135662 304.30278946 117.18828258 301.78515625 121.1953125 C301.18751465 122.14857422 300.58987305 123.10183594 299.97412109 124.08398438 C299.34328613 125.08751953 298.71245117 126.09105469 298.0625 127.125 C296.72227515 129.26278196 295.38243909 131.40080771 294.04296875 133.5390625 C293.03242432 135.15216309 293.03242432 135.15216309 292.00146484 136.79785156 C288.41514415 142.53561471 284.85767764 148.29118062 281.30102539 154.04736328 C280.80723389 154.8464209 280.31344238 155.64547852 279.8046875 156.46875 C279.38171387 157.15388672 278.95874023 157.83902344 278.52294922 158.54492188 C277.76908936 159.76018555 277.76908936 159.76018555 277 161 C276.61935394 162.00562737 276.61935394 162.00562737 276.23101807 163.03157043 C275.08139395 165.59630706 274.12581716 167.14091792 272 169 C267.11428637 170.18363334 262.24383784 170.00468499 257.25 169.88671875 C255.78940016 169.87940452 254.3287817 169.87520526 252.86816406 169.87397766 C249.81104348 169.86322462 246.75580472 169.82618449 243.69921875 169.76831055 C239.78834642 169.69475278 235.87909093 169.66907257 231.96759033 169.66089153 C228.95280018 169.65228981 225.93834232 169.62714569 222.92370605 169.59613991 C221.48208329 169.58160159 220.04042659 169.57009357 218.59875488 169.56171227 C216.58128065 169.54572604 214.56402455 169.50709605 212.546875 169.4675293 C211.40057617 169.45006149 210.25427734 169.43259369 209.07324219 169.41459656 C205.70111936 168.95967943 203.76073 167.94202478 201 166 C200.67 166.99 200.34 167.98 200 169 C197.91015625 170.8046875 197.91015625 170.8046875 195.0625 172.875 C194.53527344 173.26155762 194.00804687 173.64811523 193.46484375 174.04638672 C191.64952523 175.37316489 189.82569281 176.68753744 188 178 C186.63408575 178.98433499 185.26820145 179.96871155 183.90234375 180.953125 C181.67001858 182.56165677 179.43752224 184.16994014 177.20385742 185.77661133 C167.28791429 192.92617614 157.5446432 200.30655787 147.78710938 207.66992188 C139.69440267 213.77494623 131.56174064 219.79983853 123.28125 225.6484375 C120.18503399 227.84896414 117.1496227 230.12574453 114.11572266 232.41113281 C110.40838927 235.19526917 106.67150114 237.93929365 102.9375 240.6875 C102.10822998 241.29835449 101.27895996 241.90920898 100.42456055 242.53857422 C96.61741577 245.34191414 92.80832231 248.14250173 88.9921875 250.93359375 C88.37690186 251.3836377 87.76161621 251.83368164 87.12768555 252.29736328 C85.92092345 253.17999574 84.71405553 254.06248354 83.50708008 254.94482422 C79.55312141 257.84208009 75.63062403 260.77863159 71.71875 263.73242188 C51.13026145 279.26981668 51.13026145 279.26981668 43.02612305 279.22705078 C41.58519539 279.22682419 41.58519539 279.22682419 40.11515808 279.22659302 C39.0910231 279.21627045 38.06688812 279.20594788 37.01171875 279.1953125 C35.95338333 279.1924826 34.89504791 279.18965271 33.80464172 279.18673706 C30.43214502 279.1755629 27.05991613 279.15046307 23.6875 279.125 C21.3977903 279.11496664 19.10807643 279.10584141 16.81835938 279.09765625 C11.21214857 279.0756326 5.60609342 279.04218236 0 279 C-0.42390665 273.09676422 -0.73015544 267.20253616 -0.93383789 261.28759766 C-1.0187691 259.28244744 -1.13438963 257.2783331 -1.2824707 255.27685547 C-2.44801114 239.1044778 -2.44801114 239.1044778 1.64489746 233.91400146 C5.68090196 230.23323576 10.19692751 227.5433947 15.03001404 225.03874207 C17.45874067 223.75811339 19.65995256 222.24321816 21.875 220.625 C22.62910156 220.09777344 23.38320312 219.57054687 24.16015625 219.02734375 C33.81583613 212.13422428 43.37486563 205.10024633 52.6875 197.75 C57.40011731 194.07524463 62.2666718 190.90845648 67.375 187.8125 C72.22464014 184.87195853 76.30393199 182.08234006 80.1171875 177.83984375 C84.31405498 173.7387554 89.42915797 170.57328119 94.23974609 167.22998047 C96.86969343 165.39230021 99.46706265 163.5109944 102.0625 161.625 C102.89910156 161.01914062 103.73570312 160.41328125 104.59765625 159.7890625 C106.243748 158.56319254 107.86281218 157.30042256 109.45703125 156.0078125 C112.09496658 153.92501871 114.81035113 152.08597042 117.625 150.25 C123.54890149 146.33993103 129.29556247 142.22218211 135 138 C130.64116758 134.41953051 126.0860599 131.15351415 121.5 127.875 C115.95555344 123.89355293 110.45311913 119.87524003 105.0625 115.6875 C97.12270002 109.52541624 89.10114862 103.56779546 80.58203125 98.2265625 C80.05996094 97.82179688 79.53789062 97.41703125 79 97 C79 96.34 79 95.68 79 95 C78.278125 94.773125 77.55625 94.54625 76.8125 94.3125 C74.04911855 93.02292199 72.67650786 91.66928426 70.62890625 89.48046875 C67.69922213 86.81775824 64.25718617 84.90076511 60.90234375 82.8203125 C54.1132193 78.56226136 47.67646607 73.84636936 41.3984375 68.87109375 C37.97019727 66.19661969 34.48357811 63.60177721 31 61 C23.18408958 55.15681747 15.36930161 49.31299588 7.625 43.375 C6.58601563 42.57835937 5.54703125 41.78171875 4.4765625 40.9609375 C2 39 2 39 0 37 C-0.17525055 34.20315203 -0.23143189 31.5067192 -0.1953125 28.7109375 C-0.1924826 27.89251373 -0.18965271 27.07408997 -0.18673706 26.23086548 C-0.17552532 23.61209607 -0.15041929 20.99366636 -0.125 18.375 C-0.11497147 16.60156743 -0.1058454 14.82812951 -0.09765625 13.0546875 C-0.07558278 8.70299374 -0.04104644 4.3515545 0 0 Z " fill="#067A5A" transform="translate(120,249)"/>
<path d="M0 0 C10.81998676 7.68510062 17.84978944 17.98936302 20.56640625 31.015625 C23.51953696 51.34167781 16.35816918 71.33555766 5 88 C2.29277112 91.5528213 -0.61539218 94.9207456 -3.58203125 98.2578125 C-5.96587484 100.86926452 -5.96587484 100.86926452 -7.69921875 103.3671875 C-8.12847656 103.90601563 -8.55773437 104.44484375 -9 105 C-9.66 105 -10.32 105 -11 105 C-11 105.66 -11 106.32 -11 107 C-13.42438123 109.58249305 -16.26763867 111.75312431 -19 114 C-19.50934082 114.42023438 -20.01868164 114.84046875 -20.54345703 115.2734375 C-28.63712266 121.91144238 -36.91052919 127.76730006 -46 133 C-46.62132812 133.35803711 -47.24265625 133.71607422 -47.8828125 134.08496094 C-51.91118681 136.3980663 -55.96181984 138.66796095 -60.02978516 140.91064453 C-61.87295546 141.92975555 -63.70812501 142.96209626 -65.54296875 143.99609375 C-79.07020055 151.5147837 -93.42428409 157.45706844 -107.81518555 163.10888672 C-109.91401902 163.96493121 -111.95532172 164.89766103 -114 165.875 C-123.87873002 170.33011354 -134.53545087 173.31713807 -144.91796875 176.359375 C-148.34001246 177.41231153 -151.66145519 178.71067393 -155 180 C-162.12725619 182.74399363 -169.32289108 185.03217807 -176.65869141 187.13745117 C-180.92632039 188.367566 -185.1226629 189.70841052 -189.3125 191.1875 C-194.16991102 192.8466157 -198.9357469 193.80466553 -204.015625 194.5078125 C-207.01423988 195.00234846 -209.91304469 195.72556072 -212.85449219 196.48291016 C-216.53806988 197.37069094 -220.2658694 197.99078025 -224 198.625 C-225.16208984 198.82609375 -225.16208984 198.82609375 -226.34765625 199.03125 C-228.23131407 199.35682049 -230.11559298 199.67879426 -232 200 C-228.79334421 193.95459335 -225.27458513 188.34220921 -221.25 182.8125 C-216.86042501 176.71163089 -212.67194215 170.53766895 -208.76660156 164.11450195 C-207.89472092 162.7104749 -206.95393269 161.34962226 -206 160 C-205.34 160 -204.68 160 -204 160 C-203.78214844 159.32839844 -203.56429688 158.65679687 -203.33984375 157.96484375 C-201.5786346 154.06759085 -199.1609275 150.94094556 -196.5625 147.5625 C-196.02898926 146.86020264 -195.49547852 146.15790527 -194.94580078 145.43432617 C-190.57274475 139.69638574 -186.12253512 134.01949554 -181.64453125 128.36328125 C-179.49131584 125.63776178 -177.38321102 122.88111632 -175.28613281 120.11230469 C-169.95997596 113.09435978 -164.30399691 106.40789492 -158.5234375 99.76171875 C-157.02434045 98.02814754 -155.54094252 96.28245331 -154.0625 94.53125 C-147.67484416 86.97775389 -141.05299936 79.69138807 -134.2734375 72.48828125 C-129.04178461 66.92832626 -123.84351963 61.33054758 -119.0625 55.375 C-118.381875 54.59125 -117.70125 53.8075 -117 53 C-116.34 53 -115.68 53 -115 53 C-114.78335693 52.45883545 -114.56671387 51.9176709 -114.34350586 51.36010742 C-112.53428545 48.18188941 -110.0790779 45.79355269 -107.50390625 43.23828125 C-106.68163795 42.41314278 -106.68163795 42.41314278 -105.84275818 41.57133484 C-104.67928785 40.40650491 -103.51329357 39.24419129 -102.3449707 38.08422852 C-100.59293643 36.342753 -98.85164059 34.59107046 -97.11132812 32.83789062 C-90.38508741 26.10362322 -83.50116854 19.87306785 -76 14 C-74.80189697 13.03453247 -74.80189697 13.03453247 -73.57958984 12.04956055 C-52.7775141 -4.70101911 -24.45102739 -15.30043606 0 0 Z " fill="#0C5A8C" transform="translate(582,321)"/>
<path d="M0 0 C95.62063655 0 95.62063655 0 110.5 13.75 C120.68959094 24.98916253 122.88131725 37.12586275 122.19091797 51.69873047 C121.44050632 60.74397369 117.83722878 68.06203096 111 74 C107.75332038 76.34667603 105.11680771 78 101 78 C101 78.66 101 79.32 101 80 C101.72703125 80.11472656 102.4540625 80.22945312 103.203125 80.34765625 C112.42459518 82.49847402 119.66757366 89.47991157 125 97 C131.25323538 108.98412413 133.07796463 121.49474056 129.5 134.6875 C124.80461476 148.13560687 115.37030722 156.34925421 103 162.8125 C72.4939281 173.93450538 25.96751791 168 0 168 C0 112.56 0 57.12 0 0 Z " fill="#012841" transform="translate(180,646)"/>
<path d="M0 0 C34.88841905 -0.02292283 69.77683637 -0.04052689 104.66526133 -0.05106533 C108.79051277 -0.05231593 112.9157642 -0.05361027 117.04101562 -0.05493164 C117.86222834 -0.05519395 118.68344105 -0.05545626 119.52953899 -0.05572652 C132.8009776 -0.06006977 146.07241184 -0.0679499 159.34384787 -0.0771528 C172.97639446 -0.08652678 186.60893878 -0.09206353 200.24148846 -0.09408849 C208.64355708 -0.09545596 217.04561338 -0.0997643 225.44767821 -0.10791647 C231.2207336 -0.11323017 236.99378268 -0.11479384 242.76684034 -0.11350138 C246.09027299 -0.11286518 249.41366702 -0.11435198 252.73709869 -0.11920547 C265.86306387 -0.13742491 278.91312718 -0.1041463 292 1 C287.05897 19.92128018 275.33458846 34.25659487 263.38671875 49.25 C262.0068117 50.99140382 260.64179855 52.74344164 259.28125 54.5 C254.17007042 61.08739554 248.94584288 67.52948239 243.41040039 73.76757812 C242.72192017 74.55358398 242.72192017 74.55358398 242.01953125 75.35546875 C241.54683304 75.87313309 241.07413483 76.39079742 240.58711243 76.92414856 C238.87273925 78.99125464 238.87273925 78.99125464 237.83279419 81.71574402 C236.07610128 85.23765998 234.3761964 87.94668614 231 90 C223.00354967 92.20112346 214.24477101 91.4477114 206.03515625 91.3203125 C203.55708443 91.31756227 201.07900561 91.31866884 198.60093689 91.32345581 C193.41287777 91.32162496 188.22691386 91.2821638 183.03930664 91.21435547 C176.4032536 91.12934175 169.77011621 91.12384222 163.13364506 91.14485359 C158.01775527 91.15462692 152.90252118 91.12916705 147.78677177 91.09246445 C145.34088329 91.07777768 142.89492103 91.07229552 140.44899178 91.07632828 C137.0232892 91.07526693 133.60115367 91.02846912 130.17602539 90.96923828 C129.17366852 90.97712372 128.17131165 90.98500916 127.13858032 90.99313354 C119.44833367 90.78506379 115.59480384 88.06050472 110 83 C108.57133768 81.92426924 107.13144336 80.86312227 105.67578125 79.82421875 C104.96381592 79.31109131 104.25185059 78.79796387 103.51831055 78.26928711 C102.42643433 77.48630249 102.42643433 77.48630249 101.3125 76.6875 C100.54010986 76.1313501 99.76771973 75.5752002 98.97192383 75.00219727 C95.2874321 72.35144284 91.59644351 69.70999027 87.8984375 67.078125 C87.26897217 66.62993408 86.63950684 66.18174316 85.9909668 65.7199707 C84.82948178 64.89402231 83.66696284 64.06952497 82.50317383 63.24682617 C80.04793727 61.50324142 77.65689448 59.72322156 75.3125 57.83203125 C72.95598108 55.86029812 72.95598108 55.86029812 69.8125 54.25 C65.7285712 51.99193137 62.26789019 49.08463916 58.66796875 46.1328125 C56.02956802 44.0236371 53.32314216 42.07044541 50.5625 40.125 C46.60637687 37.29283872 43.04408676 34.269849 39.5 30.9375 C35.20026555 26.93661235 30.82479941 23.81161358 25.81640625 20.76953125 C16.72639613 15.0583321 8.05302841 8.10188332 0 1 C0 0.67 0 0.34 0 0 Z " fill="#E43E3B" transform="translate(210,249)"/>
<path d="M0 0 C10.23 0 20.46 0 31 0 C31 56.1 31 112.2 31 170 C21.1 170 11.2 170 1 170 C0.67 165.38 0.34 160.76 0 156 C-0.99 157.65 -1.98 159.3 -3 161 C-15.5387304 171.86689968 -29.71175696 173.77221101 -45.59326172 173.17919922 C-57.08455924 172.32358831 -68.25409822 165.72743428 -76.0546875 157.453125 C-82.73336739 149.03101461 -87.28463752 139.37554294 -90 129 C-90.33644531 127.75089844 -90.33644531 127.75089844 -90.6796875 126.4765625 C-95.04013216 107.06362393 -91.81098944 86.27799667 -81.25 69.4375 C-74.08526937 59.15611154 -64.60729141 51.4143971 -52.24609375 48.46875 C-37.42118284 46.32796864 -21.79032156 47.60389935 -9 56 C-6.36 58.31 -3.72 60.62 -1 63 C-0.67 42.21 -0.34 21.42 0 0 Z " fill="#032A43" transform="translate(573,644)"/>
<path d="M0 0 C9.9 0 19.8 0 30 0 C30 56.1 30 112.2 30 170 C20.43 170 10.86 170 1 170 C0.67 165.71 0.34 161.42 0 157 C-1.32 158.65 -2.64 160.3 -4 162 C-13.67848705 170.42311844 -25.23540401 173.43143293 -37.75 173.5 C-39.04405762 173.50942627 -39.04405762 173.50942627 -40.36425781 173.51904297 C-54.95859886 173.23205994 -65.90875409 167.19034161 -76 157 C-89.4836196 142.5057738 -92.79353113 124.28756269 -92.2734375 105.18359375 C-91.52298451 88.28599729 -86.57089051 72.44369033 -74.47265625 60.1171875 C-63.45008416 50.67921898 -51.26730199 47.30387782 -36.9375 47.65625 C-22.53570417 48.91354964 -11.27331872 53.6030989 -1 64 C-1.00222061 63.21295181 -1.00444122 62.42590363 -1.00672913 61.61500549 C-1.02673113 54.2130967 -1.04197366 46.81120092 -1.05181217 39.40927219 C-1.0570402 35.60348423 -1.06413638 31.79771852 -1.07543945 27.99194336 C-1.0862712 24.32207456 -1.09227744 20.65222722 -1.09487724 16.98234367 C-1.09673097 15.57925008 -1.1003506 14.17615771 -1.10573006 12.7730732 C-1.11294419 10.8143032 -1.11340809 8.8555118 -1.11352539 6.89672852 C-1.115746 5.77976089 -1.11796661 4.66279327 -1.12025452 3.51197815 C-1 1 -1 1 0 0 Z " fill="#012841" transform="translate(824,644)"/>
<path d="M0 0 C8.04390467 4.02195233 15.19982904 8.78835267 22.25390625 14.32836914 C25.24148025 16.66878189 28.24308721 18.88903827 31.4375 20.9375 C35.48132533 23.54665936 39.18753667 26.49343907 42.9375 29.5 C47.58101529 33.21111467 52.21663274 36.4726552 57.38671875 39.42578125 C66.16719516 44.71506674 74.29241074 51.16579297 82.375 57.45117188 C86.39542863 60.56774493 90.51132862 63.50893101 94.69921875 66.39453125 C98.20157734 68.8384521 101.60439951 71.4106175 105 74 C103.51990698 78.39126936 100.27294817 79.88336824 96.4375 82 C89.63228907 85.90264489 83.24522543 90.22865295 76.90014648 94.83789062 C73.29323415 97.44339017 69.69408316 99.75932538 65.79541016 101.9206543 C62.21852 104.07097132 58.97629439 106.68944926 55.6875 109.25 C54.55731445 110.12096313 54.55731445 110.12096313 53.40429688 111.00952148 C49.56176707 113.97871145 45.75966238 116.9887657 42 120.0625 C37.10898527 124.01166392 31.98508013 127.60268747 26.83374023 131.20043945 C22.85121299 133.98245203 18.89435081 136.79281891 14.97265625 139.66015625 C14.15216797 140.25932861 13.33167969 140.85850098 12.48632812 141.47583008 C10.89244271 142.64250668 9.30121109 143.81281905 7.71289062 144.98706055 C6.63491211 145.77463745 6.63491211 145.77463745 5.53515625 146.578125 C4.899729 147.04637695 4.26430176 147.51462891 3.60961914 147.99707031 C2 149 2 149 0 149 C0 99.83 0 50.66 0 0 Z " fill="#171716" transform="translate(120,312)"/>
<path d="M0 0 C2.53767229 0.05024131 5.07544065 0.09585438 7.61328125 0.13671875 C13.78597536 0.24609159 19.95503221 0.41272053 26.125 0.625 C24.94259516 3.62968466 23.76020628 6.44406204 22.0859375 9.20703125 C21.67802979 9.88024414 21.27012207 10.55345703 20.84985352 11.24707031 C20.40440186 11.96991211 19.9589502 12.69275391 19.5 13.4375 C19.03070068 14.20288086 18.56140137 14.96826172 18.07788086 15.75683594 C11.89746299 25.73640756 5.3200505 35.45848652 -1.23754883 45.19238281 C-2.53117992 47.11421675 -3.81946595 49.03922116 -5.1015625 50.96875 C-11.26574134 60.20144078 -17.70682458 69.22804258 -24.26928711 78.18066406 C-24.79401611 78.90092773 -25.31874512 79.62119141 -25.859375 80.36328125 C-26.32053711 80.99274658 -26.78169922 81.62221191 -27.25683594 82.27075195 C-28.88465579 84.48184515 -28.88465579 84.48184515 -29.73245907 86.57620525 C-30.89856557 88.97503534 -31.98918488 90.72870039 -33.875 92.625 C-37.60714009 93.77751403 -41.21452243 93.579913 -45.09106445 93.44140625 C-46.22320877 93.43282089 -47.35535309 93.42423553 -48.52180481 93.41539001 C-52.26222218 93.37754327 -55.99892239 93.28277694 -59.73828125 93.1875 C-62.33183561 93.15013985 -64.9254434 93.11633238 -67.51908875 93.0859375 C-73.64675091 93.00554616 -79.77277383 92.88935839 -85.89947623 92.75576973 C-92.87604673 92.60565182 -99.85306808 92.50133823 -106.83050215 92.40083122 C-121.17972772 92.19311215 -135.52748605 91.9279998 -149.875 91.625 C-146.9752136 89.29610231 -144.07744205 87.00396065 -141.046875 84.84765625 C-139.98351929 84.08727051 -139.98351929 84.08727051 -138.89868164 83.31152344 C-138.1483667 82.7755957 -137.39805176 82.23966797 -136.625 81.6875 C-125.70185507 73.83813185 -114.85209987 65.85833104 -104.5625 57.1875 C-98.87895079 52.47557115 -92.82885063 48.33220857 -86.7668457 44.12915039 C-73.72396192 35.07565548 -60.9778061 25.63688817 -48.53857422 15.76953125 C-47.14331949 14.66973037 -45.73004677 13.59253235 -44.30273438 12.53466797 C-41.75149139 10.5989957 -41.75149139 10.5989957 -39.19726562 8.00048828 C-27.92419991 -2.37314716 -14.457219 -0.49917434 0 0 Z " fill="#1B4291" transform="translate(354.875,436.375)"/>
<path d="M0 0 C0.74769653 0.56593872 0.74769653 0.56593872 1.51049805 1.14331055 C5.34067482 4.03100918 9.19498463 6.86935064 13.12109375 9.625 C19.00903215 13.75879509 24.61835341 18.09508077 30.14453125 22.70703125 C34.55406986 26.24793298 39.17456518 29.4755896 43.796875 32.73046875 C46.21788536 34.44584316 48.58968026 36.18809563 50.9375 38 C55.38237312 41.37965298 60.06093438 44.41675745 64.72241211 47.48632812 C71.98382288 52.2740302 71.98382288 52.2740302 74 54 C74 54.66 74 55.32 74 56 C75.0828125 56.3403125 75.0828125 56.3403125 76.1875 56.6875 C79 58 79 58 81.265625 60.3203125 C84.1309452 63.1283263 87.15290946 65.13511131 90.5625 67.1875 C96.38029281 70.80318485 101.52488227 74.846866 106.7265625 79.31640625 C115.8328462 86.95642393 126.04264532 93.53197474 136 100 C129.17498214 107.53105419 120.34188486 112.94370762 111.703125 118.1640625 C109.5130455 119.65154424 107.63144063 121.14737723 105.65234375 122.88671875 C102.08035156 126.0101532 98.27387019 128.58862385 94.3125 131.1875 C89.115347 134.66104326 84.41284424 138.26244088 79.9375 142.625 C75.33585233 147.08092233 70.55196982 150.2344405 64.99023438 153.37768555 C57.93313408 157.44943262 51.72401538 162.51941543 45.35546875 167.57421875 C39.9482505 171.86090502 34.34639348 175.84487967 28.69873047 179.80566406 C25.72531553 181.89619955 22.76983469 184.01181183 19.8125 186.125 C19.23564453 186.53572754 18.65878906 186.94645508 18.06445312 187.36962891 C15.27425787 189.35911114 12.49771254 191.36367323 9.74609375 193.40625 C8.75738281 194.1384375 7.76867187 194.870625 6.75 195.625 C5.87859375 196.27726563 5.0071875 196.92953125 4.109375 197.6015625 C2 199 2 199 0 199 C-2.10978192 177.92964537 -2.10978192 177.92964537 2.26171875 171.859375 C5.10128348 169.99245917 7.8673969 168.49317703 10.9375 167.06396484 C14.87734925 165.03154735 18.33026321 162.26905295 21.875 159.625 C23.41397923 158.50590487 24.95434164 157.38870938 26.49609375 156.2734375 C27.25003418 155.72526367 28.00397461 155.17708984 28.78076172 154.61230469 C30.88387045 153.08436958 32.99048747 151.56139071 35.09765625 150.0390625 C41.78631908 145.18982387 48.28178345 140.21067971 54.640625 134.93359375 C58.67037098 131.63107014 62.75639856 128.69659279 67.3125 126.14453125 C70.81149593 124.16106207 74.01309376 121.89180264 77.25 119.5 C85.87294667 113.21278588 94.93248963 107.61737649 104 102 C102.57498119 97.72494357 99.36735212 96.30396497 95.75 93.9375 C90.49649307 90.41936994 85.35038052 86.84012478 80.375 82.9375 C71.53949815 76.04043386 62.49772893 69.51881534 53 63.5625 C47.44101787 60.07007996 42.30643748 56.20891615 37.19287109 52.09716797 C32.25157799 48.13996362 27.12399553 44.54672039 21.890625 40.98828125 C18.8480701 38.89549687 15.91024106 36.72363109 13.0546875 34.3828125 C10.96194547 32.84596928 10.96194547 32.84596928 8.0703125 31.9921875 C4.15702273 30.40894813 2.46479734 29.49512704 0 26 C-1.45172256 17.46328774 -0.65895276 8.59034782 0 0 Z " fill="#F8D145" transform="translate(120,286)"/>
<path d="M0 0 C10.56 0 21.12 0 32 0 C32 55.44 32 110.88 32 168 C21.44 168 10.88 168 0 168 C0 112.56 0 57.12 0 0 Z " fill="#002740" transform="translate(677,646)"/>
<path d="M0 0 C0 8.58 0 17.16 0 26 C-2.92875 26.53625 -5.8575 27.0725 -8.875 27.625 C-20.54390133 29.98173418 -28.97748742 34.06389177 -36 44 C-40.06411571 50.59179743 -41.09484887 56.6394208 -41.20532227 64.37255859 C-41.22526749 65.61339203 -41.24521271 66.85422546 -41.26576233 68.13265991 C-41.28274121 69.47125121 -41.29962021 70.80984377 -41.31640625 72.1484375 C-41.33700178 73.52992335 -41.3579989 74.91140327 -41.37937927 76.2928772 C-41.43433178 79.91281298 -41.48385824 83.53280308 -41.53222656 87.15283203 C-41.58263861 90.85323866 -41.63817176 94.55356827 -41.69335938 98.25390625 C-41.80109292 105.50254437 -41.90032409 112.75122869 -42 120 C-52.23 120 -62.46 120 -73 120 C-73 80.73 -73 41.46 -73 1 C-63.1 1 -53.2 1 -43 1 C-43 6.28 -43 11.56 -43 17 C-42.21625 15.824375 -41.4325 14.64875 -40.625 13.4375 C-34.8750607 5.80699231 -27.18525787 1.29173101 -18 -1 C-17.13375 -1.226875 -16.2675 -1.45375 -15.375 -1.6875 C-9.48144256 -2.46296808 -5.74169098 -1.91389699 0 0 Z " fill="#032A42" transform="translate(469,694)"/>
<path d="M0 0 C9.9 0 19.8 0 30 0 C30 39.27 30 78.54 30 119 C19.77 119 9.54 119 -1 119 C-1.02283577 107.61865431 -1.04107667 96.23732451 -1.05181217 84.85596085 C-1.05697159 79.56786479 -1.06393843 74.27978558 -1.07543945 68.99169922 C-1.12425162 45.96340647 -1.03330204 23.00927691 0 0 Z " fill="#012841" transform="translate(336,695)"/>
<path d="M0 0 C4.58831277 4.32859695 7.87816709 10.62464613 8.30200195 16.95703125 C8.36877368 20.40894326 8.40998311 23.86004708 8.4375 27.3125 C8.46650391 28.49457031 8.49550781 29.67664063 8.52539062 30.89453125 C8.58931621 39.8146094 7.59313444 47.77524141 2.046875 55.03125 C-6.99432338 62.44633356 -16.1784582 65.38961345 -27.875 64.3125 C-36.74489792 62.23454533 -42.92381472 58.46011175 -48.1875 51.0625 C-53.68970792 40.12892805 -53.73586872 24.26524487 -50.3125 12.6875 C-47.07488473 4.58786042 -42.88994678 -0.09842341 -34.875 -3.625 C-23.63780972 -7.77605163 -9.87017841 -7.77778513 0 0 Z " fill="#FCFAF0" transform="translate(815.875,725.6875)"/>
<path d="M0 0 C7.63552534 7.99912178 7.85677954 16.74888251 7.9375 27.3125 C7.96650391 28.55064453 7.99550781 29.78878906 8.02539062 31.06445312 C8.08334164 39.48518177 7.51628849 47.24905022 1.80493164 53.85522461 C-4.52404577 60.06092693 -13.22744401 63.39499614 -22 64 C-30.78516229 63.83700998 -38.77663406 60.50074976 -45.375 54.75 C-53.58594255 45.43758954 -53.03481001 32.50307916 -52.52294922 20.79394531 C-51.8789922 11.89756218 -48.0678544 5.47980601 -41.88671875 -0.75 C-30.21978152 -10.47727273 -11.66955042 -8.67886162 0 0 Z " fill="#FBF9F0" transform="translate(565.375,726.25)"/>
<path d="M0 0 C5.28 -0.061875 10.56 -0.12375 16 -0.1875 C17.629375 -0.21481201 19.25875 -0.24212402 20.9375 -0.27026367 C35.1882051 -0.4091135 49.90196531 0.07819843 60.61328125 10.58203125 C65.79323993 16.34564725 65.59094337 22.82549741 65.40234375 30.28515625 C64.82539195 35.61215787 63.12385821 38.63145898 59 42 C54.0385135 45.17684635 49.18089372 47.12908371 43.25317383 47.11352539 C42.29240433 47.11344986 41.33163483 47.11337433 40.3417511 47.11329651 C39.30729355 47.10813522 38.272836 47.10297394 37.20703125 47.09765625 C35.61528328 47.09553383 35.61528328 47.09553383 33.99137878 47.09336853 C30.59839065 47.08776606 27.20546823 47.07521314 23.8125 47.0625 C21.51367283 47.05748532 19.21484462 47.05292236 16.91601562 47.04882812 C11.27729799 47.03864626 5.63872266 47.01907122 0 47 C0 31.49 0 15.98 0 0 Z " fill="#FAF8EF" transform="translate(212,739)"/>
<path d="M0 0 C5.506875 -0.061875 11.01375 -0.12375 16.6875 -0.1875 C19.25084106 -0.22846802 19.25084106 -0.22846802 21.8659668 -0.27026367 C45.31073165 -0.48981554 45.31073165 -0.48981554 53.6328125 7.20703125 C58.99973 14.24536021 58.9770424 21.47142426 58 30 C56.43784634 34.35860156 54.22802644 37.03050544 50.625 39.875 C39.22384829 44.76120787 27.04066637 44.13501399 14.875 44.0625 C9.96625 44.041875 5.0575 44.02125 0 44 C0 29.48 0 14.96 0 0 Z " fill="#FCFAF1" transform="translate(212,673)"/>
<path d="M0 0 C4.39569246 2.72532932 7.79860114 6.28470227 10.125 10.9375 C10.72111364 17.20815695 10.38158131 22.40131177 7.125 27.9375 C1.98406425 33.07843575 -2.58904578 34.97306639 -9.75 35.3125 C-16.18068642 35.16722847 -20.72309202 33.08940798 -25.25 28.5625 C-28.4344767 23.41834533 -30.00583937 17.98749064 -28.875 11.9375 C-26.56417135 6.96921841 -23.53590543 2.27691199 -18.5546875 -0.23046875 C-12.7955589 -2.018653 -5.71627369 -2.0670454 0 0 Z " fill="#032841" transform="translate(360.875,645.0625)"/>
<path d="M0 0 C3.5 1.8125 3.5 1.8125 6 4 C6.8971875 4.7734375 6.8971875 4.7734375 7.8125 5.5625 C11.17286144 9.63030595 10.38478971 15.50294565 10.34375 20.46875 C9.86653649 25.37103422 8.45860459 28.51394617 5 32 C0.29465658 35.42206795 -4.37166874 35.72002076 -10 35 C-15.44189799 33.186034 -18.7783325 29.61737362 -22 25 C-23.61371538 20.15885385 -23.97689633 14.81388617 -22.28125 9.9296875 C-17.26787402 0.59025322 -9.85350571 -1.04314653 0 0 Z " fill="#002640" transform="translate(647,200)"/>
<path d="M0 0 C0.33 1.32 0.66 2.64 1 4 C3.97 4.495 3.97 4.495 7 5 C6.34 5.33 5.68 5.66 5 6 C3.86649466 8.01669827 3.86649466 8.01669827 3 10 C2.01 10 1.02 10 0 10 C-0.33 10.66 -0.66 11.32 -1 12 C0.15628906 11.98259766 0.15628906 11.98259766 1.3359375 11.96484375 C2.33882812 11.95582031 3.34171875 11.94679688 4.375 11.9375 C5.37273437 11.92589844 6.37046875 11.91429687 7.3984375 11.90234375 C10 12 10 12 12 13 C12.33 12.01 12.66 11.02 13 10 C13.66 10 14.32 10 15 10 C15 10.66 15 11.32 15 12 C14.34 12 13.68 12 13 12 C13 12.66 13 13.32 13 14 C38.08 14 63.16 14 89 14 C89 14.33 89 14.66 89 15 C51.05 15 13.1 15 -26 15 C-24.35 13.68 -22.7 12.36 -21 11 C-20.07703125 10.24460937 -19.1540625 9.48921875 -18.203125 8.7109375 C-12.16711481 3.9364215 -7.6977611 0.89807213 0 0 Z " fill="#123185" transform="translate(231,513)"/>
<path d="M0 0 C1.40897804 0.00333092 1.40897804 0.00333092 2.84642029 0.00672913 C3.90744461 0.00680466 4.96846893 0.00688019 6.06164551 0.00695801 C7.21579453 0.01211929 8.36994354 0.01728058 9.55906677 0.02259827 C10.73404221 0.02401321 11.90901764 0.02542816 13.11959839 0.02688599 C16.88981116 0.0325046 20.65996556 0.04506026 24.43016052 0.05775452 C26.97898779 0.06276712 29.52781599 0.06733044 32.0766449 0.07142639 C38.34033685 0.08248007 44.60399452 0.0992363 50.86766052 0.12025452 C50.86766052 0.45025452 50.86766052 0.78025452 50.86766052 1.12025452 C49.93699768 1.15783875 49.93699768 1.15783875 48.98753357 1.19618225 C46.17653655 1.31222172 43.36586811 1.43491211 40.55516052 1.55775452 C39.57869568 1.59707092 38.60223083 1.63638733 37.59617615 1.67689514 C36.65838318 1.71878967 35.72059021 1.7606842 34.75437927 1.80384827 C33.45826721 1.85883484 33.45826721 1.85883484 32.13597107 1.91493225 C29.70287792 2.04772806 29.70287792 2.04772806 26.86766052 3.12025452 C24.8589061 2.84454312 22.85587365 2.51789714 20.86766052 2.12025452 C20.86766052 3.11025452 20.86766052 4.10025452 20.86766052 5.12025452 C21.85766052 5.45025452 22.84766052 5.78025452 23.86766052 6.12025452 C23.53766052 7.11025452 23.20766052 8.10025452 22.86766052 9.12025452 C22.20766052 9.12025452 21.54766052 9.12025452 20.86766052 9.12025452 C20.86766052 9.78025452 20.86766052 10.44025452 20.86766052 11.12025452 C19.2123343 12.13891681 17.54505914 13.13836264 15.86766052 14.12025452 C15.53766052 14.78025452 15.20766052 15.44025452 14.86766052 16.12025452 C15.52766052 16.12025452 16.18766052 16.12025452 16.86766052 16.12025452 C16.20766052 17.44025452 15.54766052 18.76025452 14.86766052 20.12025452 C14.86766052 19.46025452 14.86766052 18.80025452 14.86766052 18.12025452 C13.87766052 18.45025452 12.88766052 18.78025452 11.86766052 19.12025452 C10.87766052 17.47025452 9.88766052 15.82025452 8.86766052 14.12025452 C7.87766052 14.61525452 7.87766052 14.61525452 6.86766052 15.12025452 C6.21210933 17.64758687 6.21210933 17.64758687 5.86766052 20.12025452 C4.87766052 20.45025452 3.88766052 20.78025452 2.86766052 21.12025452 C2.53766052 20.79025452 2.20766052 20.46025452 1.86766052 20.12025452 C0.87766052 20.45025452 -0.11233948 20.78025452 -1.13233948 21.12025452 C-1.13233948 19.80025452 -1.13233948 18.48025452 -1.13233948 17.12025452 C-0.14233948 16.79025452 0.84766052 16.46025452 1.86766052 16.12025452 C1.53766052 14.47025452 1.20766052 12.82025452 0.86766052 11.12025452 C1.52766052 11.12025452 2.18766052 11.12025452 2.86766052 11.12025452 C2.86766052 10.46025452 2.86766052 9.80025452 2.86766052 9.12025452 C6.33266052 8.62525452 6.33266052 8.62525452 9.86766052 8.12025452 C8.21766052 7.79025452 6.56766052 7.46025452 4.86766052 7.12025452 C5.52766052 5.80025452 6.18766052 4.48025452 6.86766052 3.12025452 C7.85766052 3.12025452 8.84766052 3.12025452 9.86766052 3.12025452 C9.09680115 3.05966858 8.32594177 2.99908264 7.53172302 2.93666077 C6.5288324 2.8528717 5.52594177 2.76908264 4.49266052 2.68275452 C3.49492615 2.60154358 2.49719177 2.52033264 1.46922302 2.43666077 C-1.13233948 2.12025452 -1.13233948 2.12025452 -3.13233948 1.12025452 C-2.13233948 0.12025452 -2.13233948 0.12025452 0 0 Z " fill="#1A4190" transform="translate(329.13233947753906,436.87974548339844)"/>
<path d="M0 0 C17.03307843 -0.10323078 33.98382221 0.25534418 51 1 C51 1.33 51 1.66 51 2 C34.83 2 18.66 2 2 2 C2 13.88 2 25.76 2 38 C1.34 37.67 0.68 37.34 0 37 C0 24.79 0 12.58 0 0 Z " fill="#1B714C" transform="translate(120,249)"/>
<path d="M0 0 C1.25159912 0.00523682 2.50319824 0.01047363 3.79272461 0.01586914 C4.78942421 0.01799156 4.78942421 0.01799156 5.80625916 0.02015686 C7.93590735 0.02577021 10.06545175 0.03832485 12.19506836 0.05102539 C13.63582205 0.05603868 15.07657739 0.06060188 16.51733398 0.06469727 C20.05577938 0.07574394 23.59416375 0.09301747 27.13256836 0.11352539 C26.80256836 1.43352539 26.47256836 2.75352539 26.13256836 4.11352539 C26.13256836 3.45352539 26.13256836 2.79352539 26.13256836 2.11352539 C16.89256836 2.11352539 7.65256836 2.11352539 -1.86743164 2.11352539 C-1.84680664 5.84665039 -1.82618164 9.57977539 -1.80493164 13.42602539 C-1.76814736 27.33855629 -2.24993216 41.21650245 -2.86743164 55.11352539 C-3.19743164 55.11352539 -3.52743164 55.11352539 -3.86743164 55.11352539 C-3.89269769 47.44141337 -3.91026287 39.76931199 -3.92236328 32.09716797 C-3.92740541 29.4848592 -3.93423889 26.87255328 -3.94287109 24.26025391 C-3.954942 20.51472271 -3.960661 16.76922867 -3.96508789 13.02368164 C-3.97024918 11.84765884 -3.97541046 10.67163605 -3.98072815 9.4599762 C-3.98084145 7.83840858 -3.98084145 7.83840858 -3.98095703 6.18408203 C-3.98317764 5.22699844 -3.98539825 4.26991486 -3.98768616 3.28382874 C-3.80271737 -0.0544108 -3.39320254 0.13434135 0 0 Z " fill="#374852" transform="translate(826.867431640625,643.886474609375)"/>
<path d="M0 0 C1.40897804 0.00333092 1.40897804 0.00333092 2.84642029 0.00672913 C3.90744461 0.00680466 4.96846893 0.00688019 6.06164551 0.00695801 C7.21579453 0.01211929 8.36994354 0.01728058 9.55906677 0.02259827 C10.73404221 0.02401321 11.90901764 0.02542816 13.11959839 0.02688599 C16.88981116 0.0325046 20.65996556 0.04506026 24.43016052 0.05775452 C26.97898779 0.06276712 29.52781599 0.06733044 32.0766449 0.07142639 C38.34033685 0.08248007 44.60399452 0.0992363 50.86766052 0.12025452 C50.86766052 0.45025452 50.86766052 0.78025452 50.86766052 1.12025452 C49.93699768 1.15783875 49.93699768 1.15783875 48.98753357 1.19618225 C46.17653655 1.31222172 43.36586811 1.43491211 40.55516052 1.55775452 C39.57869568 1.59707092 38.60223083 1.63638733 37.59617615 1.67689514 C36.65838318 1.71878967 35.72059021 1.7606842 34.75437927 1.80384827 C33.45826721 1.85883484 33.45826721 1.85883484 32.13597107 1.91493225 C29.70287792 2.04772806 29.70287792 2.04772806 26.86766052 3.12025452 C24.8589061 2.84454312 22.85587365 2.51789714 20.86766052 2.12025452 C20.53766052 3.44025452 20.20766052 4.76025452 19.86766052 6.12025452 C19.53766052 5.13025452 19.20766052 4.14025452 18.86766052 3.12025452 C17.87766052 3.12025452 16.88766052 3.12025452 15.86766052 3.12025452 C15.20766052 4.77025452 14.54766052 6.42025452 13.86766052 8.12025452 C10.89766052 7.79025452 7.92766052 7.46025452 4.86766052 7.12025452 C5.52766052 5.80025452 6.18766052 4.48025452 6.86766052 3.12025452 C7.85766052 3.12025452 8.84766052 3.12025452 9.86766052 3.12025452 C9.09680115 3.05966858 8.32594177 2.99908264 7.53172302 2.93666077 C6.5288324 2.8528717 5.52594177 2.76908264 4.49266052 2.68275452 C3.49492615 2.60154358 2.49719177 2.52033264 1.46922302 2.43666077 C-1.13233948 2.12025452 -1.13233948 2.12025452 -3.13233948 1.12025452 C-2.13233948 0.12025452 -2.13233948 0.12025452 0 0 Z " fill="#0C2B82" transform="translate(329.13233947753906,436.87974548339844)"/>
<path d="M0 0 C0.66 0.33 1.32 0.66 2 1 C1.01 2.485 1.01 2.485 0 4 C-0.99 4 -1.98 4 -3 4 C-3 4.66 -3 5.32 -3 6 C-2.34 6.33 -1.68 6.66 -1 7 C-2.3125 9 -2.3125 9 -4 11 C-4.99 11 -5.98 11 -7 11 C-7.33 11.99 -7.66 12.98 -8 14 C-9.65 14 -11.3 14 -13 14 C-13.33 14.66 -13.66 15.32 -14 16 C-15.32 16 -16.64 16 -18 16 C-19.34164079 16.2981424 -20.67851173 16.62243192 -22 17 C-18.26947932 13.04961974 -14.32858629 9.91125846 -9.875 6.8125 C-9.25496094 6.37486328 -8.63492187 5.93722656 -7.99609375 5.48632812 C-5.351895 3.6240161 -2.69106929 1.79404619 0 0 Z " fill="#1A408E" transform="translate(290,465)"/>
<path d="M0 0 C0.84755859 0.00322266 1.69511719 0.00644531 2.56835938 0.00976562 C3.8899707 0.02233398 3.8899707 0.02233398 5.23828125 0.03515625 C6.57729492 0.04192383 6.57729492 0.04192383 7.94335938 0.04882812 C10.14590112 0.06060642 12.34830724 0.07705461 14.55078125 0.09765625 C14.55078125 0.75765625 14.55078125 1.41765625 14.55078125 2.09765625 C16.04931641 2.17113281 16.04931641 2.17113281 17.578125 2.24609375 C19.51365234 2.35824219 19.51365234 2.35824219 21.48828125 2.47265625 C23.41994141 2.57707031 23.41994141 2.57707031 25.390625 2.68359375 C26.95490234 2.88855469 26.95490234 2.88855469 28.55078125 3.09765625 C29.04578125 4.08765625 29.04578125 4.08765625 29.55078125 5.09765625 C17.01078125 4.43765625 4.47078125 3.77765625 -8.44921875 3.09765625 C-6.68405966 -0.43266194 -3.53612357 -0.02373237 0 0 Z " fill="#E9ECE9" transform="translate(613.44921875,142.90234375)"/>
<path d="M0 0 C1.93742341 -0.02703381 3.87495479 -0.04641125 5.8125 -0.0625 C6.89144531 -0.07410156 7.97039062 -0.08570313 9.08203125 -0.09765625 C12 0 12 0 15 1 C13.54955729 5.10958767 11.48889248 8.43258745 9 12 C8.34 11.34 7.68 10.68 7 10 C8.32 8.35 9.64 6.7 11 5 C10.54625 5.495 10.0925 5.99 9.625 6.5 C8 8 8 8 6 8 C6 7.01 6 6.02 6 5 C5.01 5.495 5.01 5.495 4 6 C4.33 4.68 4.66 3.36 5 2 C4.34 2.66 3.68 3.32 3 4 C2.34 4.66 1.68 5.32 1 6 C0.01 6 -0.98 6 -2 6 C-1.67 5.01 -1.34 4.02 -1 3 C-0.34 2.67 0.32 2.34 1 2 C0.67 1.34 0.34 0.68 0 0 Z " fill="#1F4694" transform="translate(364,439)"/>
<path d="M0 0 C0.33 0 0.66 0 1 0 C1.33 17.49 1.66 34.98 2 53 C2.33 53 2.66 53 3 53 C3 56.3 3 59.6 3 63 C2.01 62.34 1.02 61.68 0 61 C-0.36076355 58.44369507 -0.36076355 58.44369507 -0.34057617 55.17333984 C-0.34034958 53.95222504 -0.34012299 52.73111023 -0.33988953 51.47299194 C-0.32456852 50.13563677 -0.30892051 48.7982853 -0.29296875 47.4609375 C-0.28737422 46.09616562 -0.28310344 44.73138772 -0.28010559 43.36660767 C-0.2686454 39.77269893 -0.23916871 36.17915333 -0.20599365 32.58538818 C-0.17531771 28.9189546 -0.16160559 25.2524624 -0.14648438 21.5859375 C-0.11429964 14.39045936 -0.06308972 7.19528054 0 0 Z " fill="#F4F2E7" transform="translate(821,646)"/>
<path d="M0 0 C0.66 0.33 1.32 0.66 2 1 C1.67 1.66 1.34 2.32 1 3 C0.34 3 -0.32 3 -1 3 C-0.34 4.32 0.32 5.64 1 7 C1.66 7 2.32 7 3 7 C3.33 6.01 3.66 5.02 4 4 C4.66 5.32 5.32 6.64 6 8 C5.01 8.99 4.02 9.98 3 11 C2.67 10.34 2.34 9.68 2 9 C1.34 9 0.68 9 0 9 C0 9.66 0 10.32 0 11 C-0.99 11 -1.98 11 -3 11 C-3 9.68 -3 8.36 -3 7 C-3.66 7 -4.32 7 -5 7 C-5 7.66 -5 8.32 -5 9 C-5.99 9 -6.98 9 -8 9 C-7.61479436 6.46089803 -7.29902057 5.27248877 -5.37109375 3.515625 C-4.73300781 3.09796875 -4.09492188 2.6803125 -3.4375 2.25 C-2.79683594 1.82203125 -2.15617187 1.3940625 -1.49609375 0.953125 C-1.00238281 0.63859375 -0.50867188 0.3240625 0 0 Z " fill="#163C8B" transform="translate(265,483)"/>
<path d="M0 0 C0.66 0.33 1.32 0.66 2 1 C1.67 1.66 1.34 2.32 1 3 C1.33 3.99 1.66 4.98 2 6 C1.34 6 0.68 6 0 6 C0.495 6.928125 0.495 6.928125 1 7.875 C2 10 2 10 2 12 C0.35 12 -1.3 12 -3 12 C-2.67 11.01 -2.34 10.02 -2 9 C-6.42664564 8.69504515 -6.42664564 8.69504515 -10.375 10.5 C-10.91125 10.995 -11.4475 11.49 -12 12 C-12.66 11.67 -13.32 11.34 -14 11 C-9.38 7.37 -4.76 3.74 0 0 Z " fill="#153888" transform="translate(237,504)"/>
<path d="M0 0 C0.66 0.33 1.32 0.66 2 1 C1.030625 1.7425 0.06125 2.485 -0.9375 3.25 C-3.02387361 4.97309915 -3.90112479 5.73868694 -4.875 8.3125 C-4.91625 8.869375 -4.9575 9.42625 -5 10 C-3.68 9.67 -2.36 9.34 -1 9 C-0.67 9.66 -0.34 10.32 0 11 C-2.31 11.33 -4.62 11.66 -7 12 C-7.33 10.35 -7.66 8.7 -8 7 C-8 7.99 -8 8.98 -8 10 C-8.66 10 -9.32 10 -10 10 C-10 8.68 -10 7.36 -10 6 C-11.65 5.67 -13.3 5.34 -15 5 C-15 4.67 -15 4.34 -15 4 C-14.16855469 3.87882813 -13.33710937 3.75765625 -12.48046875 3.6328125 C-11.39378906 3.46523437 -10.30710937 3.29765625 -9.1875 3.125 C-8.10855469 2.96257812 -7.02960937 2.80015625 -5.91796875 2.6328125 C-2.82678207 2.14867662 -2.82678207 2.14867662 0 0 Z " fill="#3791CB" transform="translate(652,231)"/>
<path d="M0 0 C4.63268926 1.71581084 5.37625207 3.65150248 9 8 C1.08 8 -6.84 8 -15 8 C-15 7.67 -15 7.34 -15 7 C-9.06 7 -3.12 7 3 7 C2.01 5.35 1.02 3.7 0 2 C0 1.34 0 0.68 0 0 Z " fill="#0F3148" transform="translate(571,618)"/>
<path d="M0 0 C3.50884758 0.38987195 4.96081631 1.87714414 7.296875 4.390625 C11.15212962 8.03366376 15.67373576 10.9466121 20 14 C19.67 14.66 19.34 15.32 19 16 C16.32364007 14.06160696 13.65001725 12.1196439 10.98046875 10.171875 C9.15502742 8.84167136 7.32528674 7.51731244 5.48828125 6.203125 C4.77027344 5.68234375 4.05226562 5.1615625 3.3125 4.625 C2.66925781 4.16351563 2.02601563 3.70203125 1.36328125 3.2265625 C0.91339844 2.82179688 0.46351563 2.41703125 0 2 C0 1.34 0 0.68 0 0 Z " fill="#EAF3EE" transform="translate(225,286)"/>
<path d="M0 0 C0.66 0.33 1.32 0.66 2 1 C2.08089542 3.77141717 2.14044062 6.54047819 2.1875 9.3125 C2.21263672 10.09818359 2.23777344 10.88386719 2.26367188 11.69335938 C2.27333984 12.45068359 2.28300781 13.20800781 2.29296875 13.98828125 C2.3086792 14.68477783 2.32438965 15.38127441 2.34057617 16.09887695 C1.90238443 18.54489783 0.86562642 19.42702086 -1 21 C-1.02888146 17.68751813 -1.04675799 14.37506833 -1.0625 11.0625 C-1.07087891 10.11697266 -1.07925781 9.17144531 -1.08789062 8.19726562 C-1.09111328 7.29814453 -1.09433594 6.39902344 -1.09765625 5.47265625 C-1.10289307 4.64000244 -1.10812988 3.80734863 -1.11352539 2.94946289 C-1 1 -1 1 0 0 Z " fill="#E7EBE3" transform="translate(213,696)"/>
<path d="M0 0 C-0.99 0.66 -1.98 1.32 -3 2 C-3.33 2.66 -3.66 3.32 -4 4 C-6.75078884 4.91692961 -8.35948913 5.10886083 -11.1875 5.0625 C-13.0746875 5.0315625 -13.0746875 5.0315625 -15 5 C-12.81915421 1.72873132 -12.18713893 1.40976616 -8.625 0.25 C-7.85414063 -0.01296875 -7.08328125 -0.2759375 -6.2890625 -0.546875 C-3.8128016 -1.03705634 -2.36758779 -0.80000683 0 0 Z " fill="#2F86BE" transform="translate(418,525)"/>
<path d="M0 0 C3.28832785 5.61545218 1.4267487 11.43182176 0.0625 17.5 C-0.288125 18.655 -0.63875 19.81 -1 21 C-1.66 21.33 -2.32 21.66 -3 22 C-2.11796547 14.64971227 -1.05987432 7.32650983 0 0 Z " fill="#072D48" transform="translate(687,379)"/>
<path d="M0 0 C1.25348607 2.95106435 1.01044806 3.97406463 -0.21484375 7.015625 C-1.06755859 8.61664063 -1.06755859 8.61664063 -1.9375 10.25 C-2.50339844 11.32765625 -3.06929687 12.4053125 -3.65234375 13.515625 C-4.09707031 14.33546875 -4.54179688 15.1553125 -5 16 C-6.26467795 13.47064411 -5.7249339 12.65809097 -5 10 C-5 9.01 -5 8.02 -5 7 C-4.34 7.33 -3.68 7.66 -3 8 C-3.66 6.35 -4.32 4.7 -5 3 C-4.360625 2.87625 -3.72125 2.7525 -3.0625 2.625 C-2.0415625 2.315625 -2.0415625 2.315625 -1 2 C-0.67 1.34 -0.34 0.68 0 0 Z " fill="#3891CC" transform="translate(675,422)"/>
<path d="M0 0 C0.66 0.33 1.32 0.66 2 1 C2 1.66 2 2.32 2 3 C4.64 2.34 7.28 1.68 10 1 C5.57120321 5.87167647 1.32881294 6.36711871 -5 7 C-3.75023244 3.34683329 -3.32901247 2.21934164 0 0 Z " fill="#3690CB" transform="translate(513,299)"/>
<path d="M0 0 C2.80347883 1.31528853 5.18153615 2.78991637 7.625 4.6875 C12.31558258 8.2718131 17.14778882 11.63924718 22 15 C21.01 15.495 21.01 15.495 20 16 C14.77868007 12.59163838 9.67865268 9.08736378 4.7265625 5.296875 C3.1906522 4.14320482 1.59831108 3.06554072 0 2 C0 1.34 0 0.68 0 0 Z " fill="#106D4A" transform="translate(193,264)"/>
<path d="M0 0 C0.86625 0.29261719 1.7325 0.58523437 2.625 0.88671875 C3.49125 1.17160156 4.3575 1.45648438 5.25 1.75 C6.425625 2.15798828 6.425625 2.15798828 7.625 2.57421875 C8.615 2.90421875 9.605 3.23421875 10.625 3.57421875 C10.295 4.56421875 9.965 5.55421875 9.625 6.57421875 C9.00625 6.40921875 8.3875 6.24421875 7.75 6.07421875 C5.66436614 5.49787231 5.66436614 5.49787231 3.625 5.57421875 C3.625 4.58421875 3.625 3.59421875 3.625 2.57421875 C1.20854218 2.40734427 1.20854218 2.40734427 -1.375 2.57421875 C-2.035 3.23421875 -2.695 3.89421875 -3.375 4.57421875 C-4.035 3.58421875 -4.695 2.59421875 -5.375 1.57421875 C-2.375 -0.42578125 -2.375 -0.42578125 0 0 Z " fill="#3893CE" transform="translate(713.375,225.42578125)"/>
<path d="M0 0 C0.99 0.33 1.98 0.66 3 1 C0.5749902 2.87097634 -1.8667982 4.7186789 -4.3125 6.5625 C-5.00279297 7.09552734 -5.69308594 7.62855469 -6.40429688 8.17773438 C-7.40493164 8.92700195 -7.40493164 8.92700195 -8.42578125 9.69140625 C-9.03848877 10.15748291 -9.65119629 10.62355957 -10.2824707 11.10375977 C-10.84925537 11.39951904 -11.41604004 11.69527832 -12 12 C-12.99 11.67 -13.98 11.34 -15 11 C-12.5749902 9.12902366 -10.1332018 7.2813211 -7.6875 5.4375 C-6.65206055 4.63795898 -6.65206055 4.63795898 -5.59570312 3.82226562 C-4.92861328 3.32275391 -4.26152344 2.82324219 -3.57421875 2.30859375 C-2.65515747 1.60947876 -2.65515747 1.60947876 -1.7175293 0.89624023 C-0.86735229 0.45260132 -0.86735229 0.45260132 0 0 Z " fill="#EDF1F1" transform="translate(270,477)"/>
<path d="M0 0 C0.33 0 0.66 0 1 0 C1.33 2.31 1.66 4.62 2 7 C-0.90600261 8.25664978 -2.79604584 9 -6 9 C-5.34 6.69 -4.68 4.38 -4 2 C-3.01 2 -2.02 2 -1 2 C-0.67 1.34 -0.34 0.68 0 0 Z " fill="#3187C0" transform="translate(481,323)"/>
<path d="M0 0 C3.43742918 -0.05802698 6.87473253 -0.09360486 10.3125 -0.125 C11.28896484 -0.14175781 12.26542969 -0.15851563 13.27148438 -0.17578125 C14.20927734 -0.18222656 15.14707031 -0.18867188 16.11328125 -0.1953125 C16.97735596 -0.20578613 17.84143066 -0.21625977 18.73168945 -0.22705078 C21 0 21 0 24 2 C22.54263913 2.19491452 21.08405407 2.38069358 19.625 2.5625 C18.81289063 2.66691406 18.00078125 2.77132812 17.1640625 2.87890625 C15 3 15 3 13 2 C10.795636 1.77049681 8.58607827 1.58924067 6.375 1.4375 C5.18648437 1.35371094 3.99796875 1.26992187 2.7734375 1.18359375 C1.40058594 1.09271484 1.40058594 1.09271484 0 1 C0 0.67 0 0.34 0 0 Z " fill="#3895D1" transform="translate(609,165)"/>
<path d="M0 0 C4.96955651 2.12980993 7.74547634 4.9403072 9.75 9.9375 C10.82646965 13.05053385 11.31130779 15.67938363 11 19 C9.34777254 16.52165881 8.30375575 14.46701401 7.1875 11.75 C5.28034863 7.35275666 2.90987295 3.79900079 0 0 Z " fill="#09172C" transform="translate(563,724)"/>
<path d="M0 0 C4.74220651 0.59277581 8.99293688 2.43477195 13 5 C13.99 6.485 13.99 6.485 15 8 C14.67 8.99 14.34 9.98 14 11 C13.49210937 10.52949219 12.98421875 10.05898438 12.4609375 9.57421875 C8.49014136 5.98265595 4.93590001 3.0977575 0 1 C0 0.67 0 0.34 0 0 Z " fill="#09192F" transform="translate(260,741)"/>
<path d="M0 0 C-4.30769231 4.92307692 -4.30769231 4.92307692 -7.8125 5.3125 C-8.8953125 5.1578125 -8.8953125 5.1578125 -10 5 C-9.34 4.34 -8.68 3.68 -8 3 C-9.32 2.67 -10.64 2.34 -12 2 C-7.8794254 0.00214565 -4.54805635 -0.17835515 0 0 Z " fill="#3993CF" transform="translate(600,167)"/>
<path d="M0 0 C-0.185625 0.61875 -0.37125 1.2375 -0.5625 1.875 C-1.23686176 4.04160178 -1.23686176 4.04160178 0 6 C-2.97 6 -5.94 6 -9 6 C-8.01 5.34 -7.02 4.68 -6 4 C-6.66 3.34 -7.32 2.68 -8 2 C-2.25 0 -2.25 0 0 0 Z " fill="#3A96D3" transform="translate(420,524)"/>
<path d="M0 0 C2.66666667 1.33333333 5.33333333 2.66666667 8 4 C8 4.66 8 5.32 8 6 C8.66 6.33 9.32 6.66 10 7 C10.625 9.5625 10.625 9.5625 11 12 C7.08060535 8.19588166 3.50897269 4.18423892 0 0 Z " fill="#3894D0" transform="translate(598,308)"/>
<path d="M0 0 C1.140625 1.67578125 1.140625 1.67578125 2 4 C1.171875 6.54296875 1.171875 6.54296875 -0.25 9.1875 C-0.93835938 10.50814453 -0.93835938 10.50814453 -1.640625 11.85546875 C-3 14 -3 14 -5 15 C-5 14.01 -5 13.02 -5 12 C-5.66 11.67 -6.32 11.34 -7 11 C-6.34 11 -5.68 11 -5 11 C-4.67 10.34 -4.34 9.68 -4 9 C-3.505 8.5875 -3.01 8.175 -2.5 7.75 C-0.42853955 5.33329614 -0.34503461 3.10531146 0 0 Z " fill="#E74749" transform="translate(496,258)"/>
<path d="M0 0 C2.97 0.99 5.94 1.98 9 3 C6.4345406 5.5654594 4.52313332 5.54046087 1 6 C0.34 4.35 -0.32 2.7 -1 1 C-0.67 0.67 -0.34 0.34 0 0 Z " fill="#2F85BF" transform="translate(712,227)"/>
<path d="M0 0 C0.66 0.309375 1.32 0.61875 2 0.9375 C5.70476015 2.24960255 9.09263991 2.60264135 13 3 C12.67 3.99 12.34 4.98 12 6 C11.67 5.34 11.34 4.68 11 4 C7.04 4 3.08 4 -1 4 C-0.34 3.67 0.32 3.34 1 3 C0.67 2.01 0.34 1.02 0 0 Z " fill="#1A4287" transform="translate(309,523)"/>
<path d="M0 0 C1.125 1.75 1.125 1.75 2 4 C1.125 6.25 1.125 6.25 0 8 C-1.65 8 -3.3 8 -5 8 C-4.67 6.35 -4.34 4.7 -4 3 C-3.34 3.66 -2.68 4.32 -2 5 C-1.34 3.35 -0.68 1.7 0 0 Z " fill="#2E80B7" transform="translate(622,384)"/>
<path d="M0 0 C3.96 0.33 7.92 0.66 12 1 C12 1.33 12 1.66 12 2 C9.03 2 6.06 2 3 2 C3 2.66 3 3.32 3 4 C2.01 4.33 1.02 4.66 0 5 C0 3.35 0 1.7 0 0 Z " fill="#F2F3EB" transform="translate(212,740)"/>
<path d="M0 0 C2.24606427 1.77444972 2.95081002 2.58352485 3.29296875 5.48046875 C3.25816406 6.37378906 3.22335937 7.26710938 3.1875 8.1875 C3.16042969 9.08855469 3.13335938 9.98960937 3.10546875 10.91796875 C3.07066406 11.60503906 3.03585937 12.29210937 3 13 C2.01 12.34 1.02 11.68 0 11 C-0.29296875 8.3984375 -0.29296875 8.3984375 -0.1875 5.375 C-0.16042969 4.37210938 -0.13335938 3.36921875 -0.10546875 2.3359375 C-0.07066406 1.56507813 -0.03585937 0.79421875 0 0 Z " fill="#E7EAE5" transform="translate(821,696)"/>
<path d="M0 0 C2 1 2 1 2.875 2.875 C4.19480413 5.36796335 5.67721672 6.45147781 8 8 C7.67 8.66 7.34 9.32 7 10 C4.36 8.02 1.72 6.04 -1 4 C-0.67 2.68 -0.34 1.36 0 0 Z " fill="#E8EDEA" transform="translate(520,776)"/>
<path d="M0 0 C0 0.66 0 1.32 0 2 C-0.66 2 -1.32 2 -2 2 C-2.66 3.32 -3.32 4.64 -4 6 C-4.33 5.01 -4.66 4.02 -5 3 C-7.01508358 2.26676204 -7.01508358 2.26676204 -9 2 C-3.375 -1.125 -3.375 -1.125 0 0 Z " fill="#3186BF" transform="translate(532,480)"/>
<path d="M0 0 C0.66 0.33 1.32 0.66 2 1 C1.67 2.65 1.34 4.3 1 6 C0.443125 5.79375 -0.11375 5.5875 -0.6875 5.375 C-3.659538 4.89304789 -5.31979941 5.73434972 -8 7 C-5.42215154 4.35247996 -3.08351902 2.05567935 0 0 Z " fill="#0E3283" transform="translate(276,475)"/>
<path d="M0 0 C4.98012761 1.50912958 8.24259942 4.55661849 12 8 C11.67 8.66 11.34 9.32 11 10 C9.16375669 8.52444734 7.3310715 7.04446569 5.5 5.5625 C4.4790625 4.73878906 3.458125 3.91507813 2.40625 3.06640625 C1.6121875 2.38449219 0.818125 1.70257812 0 1 C0 0.67 0 0.34 0 0 Z " fill="#0D1B30" transform="translate(560,699)"/>
<path d="M0 0 C-6.435 2.97 -6.435 2.97 -13 6 C-11 2 -11 2 -7.625 0.1875 C-4 -1 -4 -1 0 0 Z " fill="#E5EAE8" transform="translate(767,695)"/>
<path d="M0 0 C2.78637633 4.1795645 1.79562512 6.14668677 1 11 C0.01 11.33 -0.98 11.66 -2 12 C-1.34 8.04 -0.68 4.08 0 0 Z " fill="#F4F4EC" transform="translate(372,656)"/>
<path d="M0 0 C0.66 0.33 1.32 0.66 2 1 C1.01 2.485 1.01 2.485 0 4 C-0.99 4 -1.98 4 -3 4 C-3 4.66 -3 5.32 -3 6 C-4.98 6.66 -6.96 7.32 -9 8 C-6.14723863 5.06799526 -3.34920216 2.35684596 0 0 Z " fill="#0F3284" transform="translate(290,465)"/>
<path d="M0 0 C1.32 0.66 2.64 1.32 4 2 C4 2.99 4 3.98 4 5 C3.34 5 2.68 5 2 5 C2 5.66 2 6.32 2 7 C1.34 7 0.68 7 0 7 C-0.66 5.35 -1.32 3.7 -2 2 C-1.34 1.34 -0.68 0.68 0 0 Z " fill="#123889" transform="translate(308,451)"/>
<path d="M0 0 C0.99 0.495 0.99 0.495 2 1 C1.01 1.495 1.01 1.495 0 2 C0 1.34 0 0.68 0 0 Z M-3 1 C-2.01 1.33 -1.02 1.66 0 2 C-0.33 3.32 -0.66 4.64 -1 6 C-3.97 6 -6.94 6 -10 6 C-10 5.67 -10 5.34 -10 5 C-9.21625 4.855625 -8.4325 4.71125 -7.625 4.5625 C-5.03578982 4.12201075 -5.03578982 4.12201075 -3 3 C-3 2.34 -3 1.68 -3 1 Z " fill="#2B7EB3" transform="translate(475,529)"/>
<path d="M0 0 C4.98012761 1.50912958 8.24259942 4.55661849 12 8 C11.01 8.33 10.02 8.66 9 9 C8.67 8.01 8.34 7.02 8 6 C6.67592331 5.31513275 5.34090759 4.65129797 4 4 C2.62913085 2.70529025 1.28659163 1.37849103 0 0 Z " fill="#126D4B" transform="translate(249,306)"/>
<path d="M0 0 C3.7952131 1.49097658 5.61042731 3.75700849 8 7 C5 7 5 7 2.3125 4.625 C0 2 0 2 0 0 Z " fill="#192C3E" transform="translate(294,733)"/>
<path d="M0 0 C0.99 0.33 1.98 0.66 3 1 C3 1.66 3 2.32 3 3 C3.598125 3.268125 4.19625 3.53625 4.8125 3.8125 C6.97224808 4.98493467 8.35790256 6.19369282 10 8 C9.67 8.66 9.34 9.32 9 10 C7.49410612 8.71520959 5.99542625 7.42195918 4.5 6.125 C3.6646875 5.40570312 2.829375 4.68640625 1.96875 3.9453125 C1.3190625 3.30335938 0.669375 2.66140625 0 2 C0 1.34 0 0.68 0 0 Z " fill="#EEF1EF" transform="translate(560,606)"/>
<path d="M0 0 C0.66 0.33 1.32 0.66 2 1 C-0.6234008 3.91488977 -3.71816394 5.88503898 -7 8 C-7.66 7.67 -8.32 7.34 -9 7 C-6.03 4.69 -3.06 2.38 0 0 Z " fill="#0D2D7F" transform="translate(323,440)"/>
<path d="M0 0 C1.43088528 2.86177057 0.59991697 4.93375773 0 8 C-1.65 8.33 -3.3 8.66 -5 9 C-3.7508258 5.54074837 -2.32472205 2.85306797 0 0 Z " fill="#122F46" transform="translate(487,279)"/>
<path d="M0 0 C1 3 1 3 0.22265625 4.82421875 C-0.8515625 6.54947917 -1.92578125 8.27473958 -3 10 C-3.66 10 -4.32 10 -5 10 C-3.84414715 6.08788267 -2.64465038 3.1254959 0 0 Z " fill="#EDF1EE" transform="translate(742,711)"/>
<path d="M0 0 C-1.75 2 -1.75 2 -4 4 C-5.32 4 -6.64 4 -8 4 C-8 3.34 -8 2.68 -8 2 C-3.61016949 -1.20338983 -3.61016949 -1.20338983 0 0 Z " fill="#348EC9" transform="translate(552,469)"/>
<path d="M0 0 C0.33 0.99 0.66 1.98 1 3 C-1 5 -1 5 -4.125 5.125 C-5.548125 5.063125 -5.548125 5.063125 -7 5 C-2.25 1.125 -2.25 1.125 0 0 Z " fill="#147859" transform="translate(192,434)"/>
<path d="M0 0 C0 0.99 0 1.98 0 3 C-0.99 3.33 -1.98 3.66 -3 4 C-3.33 4.99 -3.66 5.98 -4 7 C-4.99 6.34 -5.98 5.68 -7 5 C-4.69 3.35 -2.38 1.7 0 0 Z " fill="#F1D749" transform="translate(201,403)"/>
<path d="M0 0 C-4.95 2.97 -4.95 2.97 -10 6 C-7.65701369 1.31402739 -5.4251219 -1.80837397 0 0 Z " fill="#F2DB4B" transform="translate(213,398)"/>
<path d="M0 0 C0.36923077 5.41538462 0.36923077 5.41538462 -1.5 8.375 C-1.995 8.91125 -2.49 9.4475 -3 10 C-2.67 8.35 -2.34 6.7 -2 5 C-2.66 5 -3.32 5 -4 5 C-4 3 -4 3 -2.5625 1.375 C-1 0 -1 0 0 0 Z " fill="#0E6195" transform="translate(600,377)"/>
<path d="M0 0 C2 0 2 0 4.5625 2.375 C7 5 7 5 8 7 C3.75177626 6.52797514 1.80010291 4.03344482 -1 1 C-0.67 0.67 -0.34 0.34 0 0 Z " fill="#EDF3ED" transform="translate(192,260)"/>
<path d="M0 0 C0.33 0 0.66 0 1 0 C1 1.65 1 3.3 1 5 C-0.98 5.99 -0.98 5.99 -3 7 C-1.125 2.25 -1.125 2.25 0 0 Z M-5 7 C-4.34 7.33 -3.68 7.66 -3 8 C-3.99 8 -4.98 8 -6 8 C-5.67 7.67 -5.34 7.34 -5 7 Z " fill="#E1E7E4" transform="translate(573,798)"/>
<path d="M0 0 C-1.45255699 3.82946843 -3.42895561 5.12050295 -7 7 C-3.86206897 0 -3.86206897 0 0 0 Z " fill="#EFF2EC" transform="translate(777,725)"/>
<path d="M0 0 C-1.65 1.32 -3.3 2.64 -5 4 C-5.66 3.67 -6.32 3.34 -7 3 C-7 2.01 -7 1.02 -7 0 C-2.25 -1.125 -2.25 -1.125 0 0 Z " fill="#0A704B" transform="translate(296,435)"/>
<path d="M0 0 C0.66 0.33 1.32 0.66 2 1 C-0.3125 3.5 -0.3125 3.5 -3 6 C-3.99 6 -4.98 6 -6 6 C-5.67 4.68 -5.34 3.36 -5 2 C-4.01 2 -3.02 2 -2 2 C-1.34 1.34 -0.68 0.68 0 0 Z " fill="#3996D2" transform="translate(473,336)"/>
<path d="M0 0 C0.33 0 0.66 0 1 0 C1.9765625 6.0546875 1.9765625 6.0546875 2 8 C1.34 8.66 0.68 9.32 0 10 C-1.125 2.25 -1.125 2.25 0 0 Z " fill="#ECF1ED" transform="translate(766,763)"/>
<path d="M0 0 C0.66 0.33 1.32 0.66 2 1 C1.40072174 4.35595828 0.15377564 6.37801226 -2 9 C-1.125 1.125 -1.125 1.125 0 0 Z " fill="#E6EBE8" transform="translate(427,704)"/>
<path d="M0 0 C0.99 0.33 1.98 0.66 3 1 C2.360625 1.103125 1.72125 1.20625 1.0625 1.3125 C0.0415625 1.6528125 0.0415625 1.6528125 -1 2 C-1.33 2.99 -1.66 3.98 -2 5 C-3.32 4.67 -4.64 4.34 -6 4 C-3.1875 1.9375 -3.1875 1.9375 0 0 Z " fill="#03152B" transform="translate(762,696)"/>
<path d="M0 0 C0.66 0.33 1.32 0.66 2 1 C0.68 1.33 -0.64 1.66 -2 2 C-2 2.99 -2 3.98 -2 5 C-4.97 4.505 -4.97 4.505 -8 4 C-5.31143836 2.20762558 -3.0466145 1.01553817 0 0 Z " fill="#2A7AAC" transform="translate(461,509)"/>
<path d="M0 0 C1.98 0.99 3.96 1.98 6 3 C4.68 4.32 3.36 5.64 2 7 C1.67 6.34 1.34 5.68 1 5 C1.66 5 2.32 5 3 5 C3 4.34 3 3.68 3 3 C2.01 2.67 1.02 2.34 0 2 C0 1.34 0 0.68 0 0 Z " fill="#E4D246" transform="translate(250,383)"/>
<path d="M0 0 C3.91402949 1.26941497 5.79072873 2.51167694 8 6 C5.6875 5.8125 5.6875 5.8125 3 5 C1.1875 2.4375 1.1875 2.4375 0 0 Z " fill="#FAEDEA" transform="translate(246,278)"/>
<path d="M0 0 C0.99 0 1.98 0 3 0 C2.49396008 2.16874252 2.00016187 3.99967627 1 6 C1.66 6 2.32 6 3 6 C2.67 6.66 2.34 7.32 2 8 C1.34 7.67 0.68 7.34 0 7 C-0.6875 4 -0.6875 4 -1 1 C-0.67 0.67 -0.34 0.34 0 0 Z " fill="#3691CB" transform="translate(579,172)"/>
<path d="M0 0 C-2.61941217 1.74627478 -4.03824877 2.38722388 -7 3 C-7 2.34 -7 1.68 -7 1 C-7.66 0.67 -8.32 0.34 -9 0 C-5.52176885 -1.15941038 -3.54104422 -0.70820884 0 0 Z " fill="#123249" transform="translate(586,152)"/>
</svg>
